<svg width="393" height="484" viewBox="0 0 393 484" fill="none" xmlns="http://www.w3.org/2000/svg">
<path d="M525.107 296.509H338.411V22.4462H525.107V296.509ZM343.433 291.487H520.085V27.4689H343.433V291.487Z" fill="#EBEBEB"/>
<path d="M529.665 32.6041H333.853V39.5979H529.665V32.6041Z" fill="#EBEBEB"/>
<path d="M529.665 40.4647H333.853V47.4585H529.665V40.4647Z" fill="#EBEBEB"/>
<path d="M529.665 48.3378H333.853V55.3315H529.665V48.3378Z" fill="#EBEBEB"/>
<path d="M529.665 56.2112H333.853V63.2049H529.665V56.2112Z" fill="#EBEBEB"/>
<path d="M529.665 64.0717H333.853V71.0654H529.665V64.0717Z" fill="#EBEBEB"/>
<path d="M529.665 71.9442H333.853V78.938H529.665V71.9442Z" fill="#EBEBEB"/>
<path d="M529.665 79.8176H333.853V86.8114H529.665V79.8176Z" fill="#EBEBEB"/>
<path d="M529.665 87.6779H333.853V94.6716H529.665V87.6779Z" fill="#EBEBEB"/>
<path d="M529.665 95.5514H333.853V102.545H529.665V95.5514Z" fill="#EBEBEB"/>
<path d="M537.45 21.4666H326.056V36.0944H537.45V21.4666Z" fill="#DBDBDB"/>
<path d="M32.6075 165.103C32.6075 164.048 32.7456 161.248 32.7456 160.081C32.7456 154.97 30.9249 152.672 26.1662 152.547C25.7078 152.575 25.2486 152.508 24.8167 152.352C24.3849 152.196 23.9896 151.953 23.6551 151.639C23.3206 151.324 23.0541 150.944 22.8719 150.523C22.6897 150.101 22.5957 149.647 22.5957 149.188C22.5957 148.728 22.6897 148.274 22.8719 147.852C23.0541 147.431 23.3206 147.051 23.6551 146.736C23.9896 146.422 24.3849 146.179 24.8167 146.023C25.2486 145.867 25.7078 145.801 26.1662 145.829C30.9249 145.628 32.7456 143.38 32.7456 138.207C32.7456 136.951 32.6075 134.214 32.6075 133.184C32.6075 126.403 35.4828 122.059 46.3313 119.686C47.0755 119.494 47.8649 119.592 48.5392 119.961C49.2135 120.33 49.7221 120.942 49.9618 121.672C50.2015 122.402 50.1543 123.197 49.8299 123.893C49.5054 124.59 48.9279 125.137 48.2147 125.424C41.4218 127.521 40.4425 129.693 40.4425 134.452C40.4425 135.846 40.5931 138.156 40.5931 139.626C40.5931 145.088 37.9312 147.75 33.3106 149.219C37.994 150.751 40.5931 153.35 40.5931 158.8C40.5931 160.281 40.4425 162.567 40.4425 163.986C40.4425 168.745 41.4218 170.917 48.2147 173.014C48.9279 173.301 49.5054 173.848 49.8299 174.545C50.1543 175.241 50.2015 176.035 49.9618 176.766C49.7221 177.496 49.2135 178.108 48.5392 178.477C47.8649 178.846 47.0755 178.944 46.3313 178.752C35.4702 176.304 32.6075 171.947 32.6075 165.103Z" fill="#EBEBEB"/>
<path d="M73.603 133.108C73.603 134.163 73.4649 136.963 73.4649 138.131C73.4649 143.304 75.3609 145.552 80.1196 145.753C80.578 145.725 81.0372 145.791 81.4691 145.947C81.9009 146.103 82.2963 146.346 82.6307 146.661C82.9652 146.975 83.2317 147.355 83.4139 147.777C83.5961 148.198 83.6901 148.653 83.6901 149.112C83.6901 149.571 83.5961 150.025 83.4139 150.447C83.2317 150.869 82.9652 151.248 82.6307 151.563C82.2963 151.878 81.9009 152.12 81.4691 152.277C81.0372 152.433 80.578 152.499 80.1196 152.471C75.3609 152.621 73.4649 154.982 73.4649 160.005C73.4649 161.198 73.603 163.998 73.603 165.028C73.603 171.883 70.7402 176.228 59.8918 178.601C59.1434 178.8 58.3473 178.703 57.6685 178.33C56.9898 177.958 56.4805 177.338 56.2463 176.6C56.0122 175.862 56.0711 175.062 56.4108 174.366C56.7506 173.67 57.3451 173.132 58.0711 172.863C64.7886 170.766 65.768 168.594 65.768 163.835C65.768 162.428 65.6299 160.13 65.6299 158.649C65.6299 153.199 68.2918 150.537 72.9124 149.068C68.2164 147.523 65.6299 144.937 65.6299 139.475C65.6299 138.005 65.768 135.708 65.768 134.301C65.768 129.542 64.7886 127.37 58.0711 125.273C57.3451 125.004 56.7506 124.465 56.4108 123.77C56.0711 123.074 56.0122 122.274 56.2463 121.536C56.4805 120.798 56.9898 120.178 57.6685 119.806C58.3473 119.433 59.1434 119.336 59.8918 119.534C70.7402 121.983 73.603 126.328 73.603 133.108Z" fill="#EBEBEB"/>
<path d="M217.923 67.4117C218.502 67.9823 218.899 68.7122 219.063 69.5087C219.228 70.3052 219.151 71.1326 218.845 71.8858C218.538 72.639 218.015 73.2842 217.341 73.7396C216.667 74.1949 215.873 74.4399 215.06 74.4435C213.947 74.453 212.873 74.035 212.059 73.2757L193.752 54.7043C193.551 54.7043 193.489 54.5034 193.426 54.315C193.364 54.2619 193.297 54.2156 193.225 54.1769C193.135 54.0166 193.071 53.8427 193.037 53.6621C192.985 53.6364 192.94 53.5992 192.906 53.5535C192.871 53.5078 192.847 53.4547 192.836 53.3984C192.773 53.2728 192.773 53.0719 192.71 53.0091C192.647 52.9463 192.585 52.7454 192.585 52.6826V52.2306C192.585 52.0925 192.509 52.0297 192.509 51.8413C192.509 51.653 192.585 51.5777 192.585 51.5149V51.0503C192.585 50.9247 192.71 50.8619 192.71 50.7991C192.71 50.7363 192.773 50.4727 192.836 50.2718C192.899 50.0708 192.911 50.2718 192.911 50.1462C193 49.9414 193.105 49.7441 193.225 49.556C193.225 49.5384 193.228 49.521 193.236 49.5049C193.243 49.4888 193.253 49.4743 193.266 49.4625C193.279 49.4506 193.294 49.4417 193.311 49.4362C193.328 49.4306 193.346 49.4287 193.363 49.4305C193.45 49.244 193.584 49.0838 193.752 48.9659L212.059 30.407C212.849 29.6525 213.899 29.2314 214.991 29.2314C216.083 29.2314 217.133 29.6525 217.923 30.407C218.308 30.7919 218.614 31.2489 218.822 31.752C219.031 32.2551 219.138 32.7944 219.138 33.339C219.138 33.8836 219.031 34.4229 218.822 34.926C218.614 35.4291 218.308 35.8861 217.923 36.271L202.479 51.8413L217.923 67.4117Z" fill="#EBEBEB"/>
<path d="M234.534 69.4966L250.493 31.5125C250.874 30.6311 251.589 29.9367 252.481 29.5813C253.373 29.2259 254.369 29.2386 255.252 29.6164C256.106 29.9911 256.777 30.689 257.119 31.5573C257.46 32.4256 257.443 33.3937 257.073 34.2498L241.114 72.2967C240.828 72.9395 240.361 73.4849 239.77 73.8663C239.179 74.2477 238.49 74.4484 237.786 74.4439C237.354 74.448 236.925 74.358 236.531 74.1803C236.085 74.0134 235.678 73.7576 235.334 73.4286C234.989 73.0996 234.716 72.7041 234.529 72.2662C234.342 71.8282 234.247 71.3569 234.248 70.8809C234.248 70.4048 234.346 69.9338 234.534 69.4966Z" fill="#EBEBEB"/>
<path d="M288.601 54.1766C288.601 54.1766 288.601 54.252 288.538 54.252C288.397 54.4119 288.246 54.5629 288.086 54.704L269.779 73.2754C268.988 74.0297 267.935 74.4482 266.841 74.4432C265.751 74.4502 264.701 74.0312 263.916 73.2754C263.527 72.8923 263.219 72.4358 263.008 71.9324C262.798 71.4291 262.689 70.889 262.689 70.3434C262.689 69.7978 262.798 69.2577 263.008 68.7544C263.219 68.2511 263.527 67.7946 263.916 67.4114L279.347 51.8411L263.916 36.3335C263.527 35.9504 263.219 35.4939 263.008 34.9905C262.798 34.4872 262.689 33.9471 262.689 33.4015C262.689 32.8559 262.798 32.3158 263.008 31.8125C263.219 31.3091 263.527 30.8527 263.916 30.4695C264.705 29.715 265.755 29.2939 266.847 29.2939C267.94 29.2939 268.99 29.715 269.779 30.4695L288.086 49.0284C288.249 49.1704 288.401 49.3258 288.538 49.493C288.601 49.493 288.601 49.6185 288.601 49.6185C288.72 49.8091 288.829 50.0061 288.927 50.2087C288.927 50.2087 288.99 50.2087 288.99 50.3343C289.032 50.5386 289.1 50.7368 289.191 50.9244C289.191 50.9872 289.191 50.9872 289.191 51.1128V51.5774C289.191 51.5774 289.254 51.8285 289.254 51.9039C289.254 51.9792 289.191 52.155 289.191 52.2303V52.6573C289.191 52.6573 289.191 52.6573 289.191 52.7828C289.111 52.9748 289.044 53.172 288.99 53.373C288.99 53.373 288.927 53.373 288.927 53.5739C288.927 53.7748 288.751 53.9129 288.601 54.1766Z" fill="#EBEBEB"/>
<path d="M263.639 505.617C403.398 505.617 516.695 496.588 516.695 485.451C516.695 474.313 403.398 465.284 263.639 465.284C123.881 465.284 10.584 474.313 10.584 485.451C10.584 496.588 123.881 505.617 263.639 505.617Z" fill="#EBEBEB"/>
<path d="M502.255 461.04H350.176L380.499 284.643H494.219L502.255 461.04Z" fill="#DBDBDB"/>
<path d="M0.890625 461.04L66.5841 460.739L132.265 460.626L263.639 460.412L395.014 460.626L460.695 460.739L526.388 461.04L460.695 461.354L395.014 461.454L263.639 461.668L132.265 461.454L66.5841 461.354L0.890625 461.04Z" fill="#263238"/>
<path d="M143.653 21.4663H18.8708V101.076H143.653V21.4663Z" fill="white"/>
<path d="M144.432 101.855H18.0798V20.6755H144.432V101.855ZM19.6493 100.285H142.862V22.2577H19.6493V100.285Z" fill="#EBEBEB"/>
<path d="M143.653 21.4663H18.8708V36.5211H143.653V21.4663Z" fill="#FF25C2"/>
<path d="M144.432 37.3124H18.0798V20.6755H144.432V37.3124ZM19.6493 35.7303H142.862V22.2576H19.6493V35.7303Z" fill="#EBEBEB"/>
<path d="M32.9963 29.1004C32.9963 29.8455 32.7754 30.5737 32.3615 31.1932C31.9476 31.8126 31.3593 32.2954 30.671 32.5805C29.9827 32.8656 29.2253 32.9402 28.4946 32.7949C27.7639 32.6495 27.0927 32.2908 26.5659 31.764C26.0391 31.2372 25.6804 30.566 25.535 29.8353C25.3897 29.1046 25.4643 28.3472 25.7494 27.6589C26.0345 26.9706 26.5173 26.3823 27.1367 25.9684C27.7562 25.5545 28.4845 25.3336 29.2295 25.3336C30.2285 25.3336 31.1866 25.7305 31.893 26.4369C32.5994 27.1433 32.9963 28.1014 32.9963 29.1004Z" fill="#A6A6A6"/>
<path d="M48.4653 29.1004C48.4653 29.8455 48.2444 30.5737 47.8305 31.1932C47.4166 31.8126 46.8283 32.2954 46.14 32.5805C45.4517 32.8656 44.6943 32.9402 43.9636 32.7949C43.2329 32.6495 42.5617 32.2908 42.0349 31.764C41.5081 31.2372 41.1494 30.566 41.004 29.8353C40.8587 29.1046 40.9333 28.3472 41.2184 27.6589C41.5035 26.9706 41.9863 26.3823 42.6057 25.9684C43.2252 25.5545 43.9535 25.3336 44.6985 25.3336C45.6975 25.3336 46.6556 25.7305 47.362 26.4369C48.0684 27.1433 48.4653 28.1014 48.4653 29.1004Z" fill="#EBEBEB"/>
<path d="M63.9973 29.1004C63.9973 29.8455 63.7764 30.5737 63.3624 31.1932C62.9485 31.8126 62.3602 32.2954 61.6719 32.5805C60.9836 32.8656 60.2263 32.9402 59.4956 32.7949C58.7649 32.6495 58.0937 32.2908 57.5669 31.764C57.0401 31.2372 56.6813 30.566 56.536 29.8353C56.3907 29.1046 56.4653 28.3472 56.7504 27.6589C57.0355 26.9706 57.5183 26.3823 58.1377 25.9684C58.7572 25.5545 59.4854 25.3336 60.2304 25.3336C61.2295 25.3336 62.1876 25.7305 62.894 26.4369C63.6004 27.1433 63.9973 28.1014 63.9973 29.1004Z" fill="white"/>
<path d="M40.4045 66.2815C40.4899 62.2576 42.1476 58.4272 45.0226 55.6107C47.8976 52.7943 51.7612 51.2158 55.7857 51.2134C59.2922 51.1923 62.7047 52.3461 65.479 54.4907C65.8859 54.9081 66.1278 55.4588 66.1599 56.0408C66.192 56.6228 66.0121 57.1968 65.6537 57.6564C65.2952 58.116 64.7823 58.4302 64.21 58.5407C63.6378 58.6513 63.0448 58.5508 62.5409 58.2577C60.632 56.7153 58.2394 55.897 55.7857 55.9473C52.9854 55.9712 50.2964 57.0469 48.2521 58.9609C47.2814 59.9182 46.5089 61.0576 45.9789 62.3137C45.4489 63.5698 45.1718 64.9181 45.1633 66.2815C45.1607 67.6406 45.4304 68.9864 45.9566 70.2394C46.4828 71.4924 47.2548 72.6273 48.227 73.577C50.2667 75.4998 52.9576 76.5808 55.7606 76.6031C58.2123 76.6407 60.6006 75.8238 62.5158 74.2927C63.0319 73.9383 63.6619 73.7894 64.2821 73.8754C64.9023 73.9613 65.468 74.2758 65.8683 74.7573C66.2285 75.2676 66.3856 75.8938 66.309 76.5137C66.2324 77.1336 65.9276 77.7027 65.4539 78.1099C62.6796 80.2546 59.2671 81.4084 55.7606 81.3873C51.7291 81.3943 47.8571 79.813 44.983 76.9857C42.1088 74.1584 40.464 70.3128 40.4045 66.2815Z" fill="#EBEBEB"/>
<path d="M73.1007 74.0913C73.4682 73.6469 73.9965 73.3658 74.5704 73.3093C75.1443 73.2529 75.7173 73.4257 76.1644 73.7899C78.415 75.7044 81.226 76.8368 84.1752 77.017C86.0378 77.0532 87.8662 76.5139 89.411 75.4725C89.9363 75.1539 90.3757 74.7115 90.6909 74.184C91.006 73.6566 91.1874 73.06 91.2191 72.4464C91.2272 71.9714 91.0963 71.5044 90.8424 71.1028C90.5195 70.5984 90.0912 70.17 89.5868 69.8471C87.8091 68.8482 85.8649 68.1802 83.8487 67.8757H83.7608C81.8997 67.5605 80.0857 67.0121 78.3617 66.2434C76.772 65.5552 75.4157 64.4213 74.4567 62.9786C73.8189 61.9448 73.484 60.7528 73.4899 59.5381C73.5339 58.3263 73.8598 57.1415 74.4417 56.0778C75.0237 55.0141 75.8457 54.1008 76.8424 53.4104C78.9679 51.935 81.5001 51.1582 84.0873 51.1878C87.4057 51.3531 90.5946 52.5271 93.2281 54.553C93.6979 54.8719 94.0232 55.363 94.1336 55.9199C94.2441 56.4769 94.1308 57.0549 93.8182 57.529C93.6667 57.7686 93.4687 57.9754 93.2359 58.1372C93.0031 58.299 92.7402 58.4125 92.4628 58.4711C92.1855 58.5296 91.8991 58.5319 91.6208 58.478C91.3425 58.424 91.0778 58.3148 90.8424 58.1568C88.6953 56.7253 86.6487 55.4697 84.0873 55.4697C82.4128 55.4449 80.7719 55.9407 79.3913 56.8886C78.9354 57.172 78.5539 57.5604 78.2787 58.0213C78.0035 58.4822 77.8425 59.0023 77.8092 59.5381C77.7852 59.9492 77.8906 60.3576 78.1106 60.7058C78.4062 61.1454 78.7913 61.5176 79.2406 61.7983C80.8486 62.7497 82.6274 63.3768 84.4765 63.6441H84.5644C86.5582 63.9923 88.502 64.5826 90.3527 65.4021C92.0492 66.1457 93.4993 67.3563 94.5339 68.8928C95.2004 69.9581 95.5529 71.1898 95.551 72.4464C95.51 73.7403 95.1604 75.0056 94.5314 76.137C93.9024 77.2684 93.0121 78.2331 91.9348 78.9508C89.6701 80.5462 86.9575 81.3815 84.1877 81.3365C80.2458 81.1554 76.4731 79.6816 73.4523 77.1426C73.0095 76.7788 72.7254 76.2573 72.6598 75.688C72.5942 75.1187 72.7523 74.5463 73.1007 74.0913Z" fill="#EBEBEB"/>
<path d="M100.649 74.0915C101.016 73.647 101.545 73.3659 102.118 73.3095C102.692 73.253 103.265 73.4258 103.712 73.7901C105.957 75.7068 108.765 76.8397 111.711 77.0172C113.577 77.0535 115.41 76.5143 116.959 75.4727C117.482 75.1525 117.919 74.7095 118.232 74.1821C118.545 73.6548 118.724 73.059 118.755 72.4465C118.763 71.9715 118.632 71.5045 118.378 71.103C118.057 70.5973 117.628 70.1686 117.122 69.8473C115.344 68.8504 113.4 68.1825 111.384 67.8759H111.296C109.432 67.5588 107.614 67.0105 105.885 66.2435C104.298 65.5552 102.946 64.421 101.992 62.9787C101.354 61.9449 101.019 60.7529 101.025 59.5382C101.066 58.3259 101.391 57.14 101.973 56.0758C102.555 55.0116 103.379 54.0988 104.378 53.4105C106.507 51.9326 109.044 51.1557 111.635 51.188C114.953 51.3579 118.14 52.5315 120.776 54.5532C121.244 54.874 121.567 55.366 121.675 55.9228C121.783 56.4796 121.667 57.0566 121.354 57.5291C121.202 57.7687 121.004 57.9756 120.771 58.1374C120.539 58.2992 120.276 58.4127 119.998 58.4712C119.721 58.5297 119.435 58.5321 119.156 58.4781C118.878 58.4241 118.613 58.3149 118.378 58.157C116.243 56.7255 114.184 55.4698 111.635 55.4698C109.96 55.4426 108.319 55.9386 106.939 56.8887C106.481 57.1707 106.097 57.5584 105.82 58.0194C105.542 58.4804 105.379 59.0013 105.345 59.5382C105.323 59.9475 105.424 60.3539 105.633 60.706C105.936 61.1397 106.32 61.5107 106.764 61.7984C108.376 62.7496 110.159 63.3766 112.012 63.6443H112.087C114.082 63.9887 116.026 64.5792 117.876 65.4022C119.576 66.1456 121.03 67.3561 122.069 68.893C122.727 69.9617 123.074 71.1919 123.074 72.4465C123.035 73.7395 122.688 75.0045 122.061 76.136C121.434 77.2675 120.546 78.2326 119.47 78.9509C117.2 80.5449 114.484 81.38 111.711 81.3367C107.77 81.15 103.999 79.6769 100.975 77.1427C100.539 76.7736 100.262 76.2507 100.201 75.6825C100.14 75.1143 100.3 74.5445 100.649 74.0915Z" fill="#EBEBEB"/>
<path d="M349.749 249.22H224.967V328.83H349.749V249.22Z" fill="white"/>
<path d="M350.54 329.621H224.175V248.429H350.54V329.621ZM225.757 328.039H349.02V250.012H225.757V328.039Z" fill="#EBEBEB"/>
<path d="M349.749 249.22H224.967V264.275H349.749V249.22Z" fill="#FF25C2"/>
<path d="M350.54 265.066H224.175V248.429H350.54V265.066ZM225.757 263.484H349.02V250.012H225.757V263.484Z" fill="#EBEBEB"/>
<path d="M239.104 256.855C239.104 257.6 238.884 258.328 238.47 258.947C238.056 259.567 237.467 260.05 236.779 260.335C236.091 260.62 235.333 260.695 234.603 260.549C233.872 260.404 233.201 260.045 232.674 259.518C232.147 258.991 231.789 258.32 231.643 257.59C231.498 256.859 231.572 256.102 231.858 255.413C232.143 254.725 232.625 254.137 233.245 253.723C233.864 253.309 234.593 253.088 235.338 253.088C236.337 253.088 237.295 253.485 238.001 254.191C238.708 254.898 239.104 255.856 239.104 256.855Z" fill="#A6A6A6"/>
<path d="M254.573 256.855C254.573 257.6 254.353 258.328 253.939 258.947C253.525 259.567 252.936 260.05 252.248 260.335C251.56 260.62 250.802 260.695 250.072 260.549C249.341 260.404 248.67 260.045 248.143 259.518C247.616 258.991 247.258 258.32 247.112 257.59C246.967 256.859 247.041 256.102 247.327 255.413C247.612 254.725 248.094 254.137 248.714 253.723C249.333 253.309 250.062 253.088 250.807 253.088C251.806 253.088 252.764 253.485 253.47 254.191C254.177 254.898 254.573 255.856 254.573 256.855Z" fill="#EBEBEB"/>
<path d="M270.043 256.855C270.043 257.6 269.822 258.328 269.408 258.947C268.994 259.567 268.406 260.05 267.717 260.335C267.029 260.62 266.272 260.695 265.541 260.549C264.81 260.404 264.139 260.045 263.612 259.518C263.086 258.991 262.727 258.32 262.581 257.59C262.436 256.859 262.511 256.102 262.796 255.413C263.081 254.725 263.564 254.137 264.183 253.723C264.803 253.309 265.531 253.088 266.276 253.088C267.275 253.088 268.233 253.485 268.939 254.191C269.646 254.898 270.043 255.856 270.043 256.855Z" fill="white"/>
<path d="M248.271 294.048C248.353 290.023 250.009 286.191 252.885 283.374C255.761 280.557 259.626 278.979 263.652 278.98C267.157 278.954 270.57 280.104 273.345 282.245C273.819 282.652 274.123 283.221 274.2 283.841C274.277 284.461 274.12 285.087 273.759 285.597C273.359 286.079 272.793 286.393 272.173 286.479C271.553 286.565 270.923 286.417 270.407 286.062C268.498 284.504 266.102 283.669 263.639 283.701C260.836 283.724 258.145 284.805 256.106 286.728C254.158 288.657 253.056 291.281 253.042 294.023C253.041 295.382 253.312 296.727 253.838 297.98C254.364 299.232 255.135 300.368 256.106 301.318C258.146 303.238 260.838 304.314 263.639 304.332C266.091 304.374 268.481 303.557 270.394 302.022C270.91 301.667 271.54 301.518 272.161 301.604C272.781 301.69 273.346 302.005 273.747 302.486C274.107 302.997 274.264 303.623 274.188 304.243C274.111 304.863 273.806 305.432 273.332 305.839C270.558 307.984 267.146 309.137 263.639 309.116C259.612 309.127 255.742 307.552 252.866 304.732C249.991 301.913 248.34 298.075 248.271 294.048Z" fill="#EBEBEB"/>
<path d="M288.475 296.685H282.473C282.156 296.708 281.838 296.666 281.538 296.561C281.238 296.456 280.963 296.29 280.731 296.073C280.498 295.857 280.312 295.595 280.185 295.304C280.058 295.013 279.993 294.698 279.993 294.381C279.993 294.063 280.058 293.749 280.185 293.457C280.312 293.166 280.498 292.904 280.731 292.688C280.963 292.472 281.238 292.306 281.538 292.2C281.838 292.095 282.156 292.053 282.473 292.076H288.425V286.212C288.425 285.58 288.676 284.973 289.124 284.525C289.571 284.078 290.178 283.827 290.81 283.827C291.443 283.827 292.05 284.078 292.497 284.525C292.945 284.973 293.196 285.58 293.196 286.212V292.039H299.16C299.742 292.082 300.286 292.343 300.683 292.771C301.08 293.198 301.3 293.76 301.3 294.343C301.3 294.926 301.08 295.488 300.683 295.915C300.286 296.343 299.742 296.604 299.16 296.647H293.196V302.536C293.196 303.169 292.945 303.776 292.497 304.223C292.05 304.671 291.443 304.922 290.81 304.922C290.178 304.922 289.571 304.671 289.124 304.223C288.676 303.776 288.425 303.169 288.425 302.536L288.475 296.685Z" fill="#EBEBEB"/>
<path d="M314.466 296.685H308.514C308.198 296.709 307.879 296.666 307.579 296.561C307.28 296.456 307.005 296.29 306.772 296.074C306.539 295.858 306.353 295.596 306.226 295.304C306.1 295.013 306.034 294.699 306.034 294.381C306.034 294.063 306.1 293.749 306.226 293.458C306.353 293.166 306.539 292.904 306.772 292.688C307.005 292.472 307.28 292.306 307.579 292.201C307.879 292.096 308.198 292.053 308.514 292.077H314.466V286.213C314.461 285.898 314.519 285.584 314.637 285.292C314.755 285 314.93 284.734 315.153 284.51C315.375 284.287 315.64 284.11 315.932 283.99C316.224 283.871 316.536 283.811 316.852 283.814C317.488 283.814 318.098 284.067 318.547 284.517C318.997 284.967 319.25 285.577 319.25 286.213V292.039H325.164C325.746 292.082 326.289 292.344 326.686 292.771C327.083 293.198 327.304 293.76 327.304 294.343C327.304 294.927 327.083 295.488 326.686 295.916C326.289 296.343 325.746 296.604 325.164 296.647H319.212V302.537C319.212 302.852 319.15 303.163 319.03 303.454C318.909 303.745 318.733 304.01 318.51 304.232C318.287 304.455 318.023 304.632 317.732 304.752C317.441 304.873 317.129 304.935 316.814 304.935C316.499 304.938 316.186 304.878 315.894 304.759C315.602 304.64 315.337 304.463 315.115 304.239C314.893 304.016 314.717 303.75 314.599 303.457C314.482 303.165 314.423 302.852 314.428 302.537L314.466 296.685Z" fill="#EBEBEB"/>
<path d="M291.551 96.2672H83.4468V267.177H291.551V96.2672Z" fill="white"/>
<path d="M292.342 267.98H82.6558V95.4884H292.342V267.98ZM84.2378 266.398H290.76V97.058H84.2378V266.398Z" fill="#EBEBEB"/>
<path d="M291.551 96.2672H83.4468V111.322H291.551V96.2672Z" fill="#FF25C2"/>
<path d="M292.342 112.113H82.6558V95.4884H292.342V112.113ZM84.2378 110.531H290.76V97.0579H84.2378V110.531Z" fill="#EBEBEB"/>
<path d="M97.5725 103.914C97.5725 104.659 97.3515 105.387 96.9376 106.006C96.5237 106.626 95.9354 107.109 95.2472 107.394C94.5589 107.679 93.8015 107.753 93.0708 107.608C92.3401 107.463 91.6689 107.104 91.1421 106.577C90.6153 106.05 90.2565 105.379 90.1112 104.648C89.9659 103.918 90.0404 103.16 90.3256 102.472C90.6107 101.784 91.0935 101.195 91.7129 100.782C92.3324 100.368 93.0606 100.147 93.8056 100.147C94.8047 100.147 95.7628 100.544 96.4692 101.25C97.1756 101.956 97.5725 102.915 97.5725 103.914Z" fill="#A6A6A6"/>
<path d="M113.041 103.914C113.041 104.659 112.821 105.387 112.407 106.006C111.993 106.626 111.404 107.109 110.716 107.394C110.028 107.679 109.27 107.753 108.54 107.608C107.809 107.463 107.138 107.104 106.611 106.577C106.084 106.05 105.726 105.379 105.58 104.648C105.435 103.918 105.509 103.16 105.795 102.472C106.08 101.784 106.562 101.195 107.182 100.782C107.801 100.368 108.53 100.147 109.275 100.147C110.274 100.147 111.232 100.544 111.938 101.25C112.645 101.956 113.041 102.915 113.041 103.914Z" fill="#EBEBEB"/>
<path d="M128.523 103.914C128.523 104.659 128.302 105.387 127.888 106.006C127.474 106.626 126.886 107.109 126.198 107.394C125.51 107.679 124.752 107.753 124.021 107.608C123.291 107.463 122.62 107.104 122.093 106.577C121.566 106.05 121.207 105.379 121.062 104.648C120.917 103.918 120.991 103.16 121.276 102.472C121.561 101.784 122.044 101.195 122.664 100.782C123.283 100.368 124.011 100.147 124.756 100.147C125.755 100.147 126.713 100.544 127.42 101.25C128.126 101.956 128.523 102.915 128.523 103.914Z" fill="white"/>
<path d="M107.642 141.271H99.594V144.209H107.642V141.271Z" fill="#EBEBEB"/>
<path d="M205.831 141.271H113.506V144.209H205.831V141.271Z" fill="#EBEBEB"/>
<path d="M226.059 141.271H210.778V144.209H226.059V141.271Z" fill="#FF25C2"/>
<path d="M261.027 180.611H245.734V183.549H261.027V180.611Z" fill="#EBEBEB"/>
<path d="M255.817 141.271H229.386V144.209H255.817V141.271Z" fill="#A6A6A6"/>
<path d="M115.691 149.143H107.642V152.081H115.691V149.143Z" fill="#EBEBEB"/>
<path d="M181.937 149.143H121.354V152.081H181.937V149.143Z" fill="#A6A6A6"/>
<path d="M242.105 180.611H206.635V183.549H242.105V180.611Z" fill="#A6A6A6"/>
<path d="M171.377 172.75H113.506V175.688H171.377V172.75Z" fill="#A6A6A6"/>
<path d="M161.947 157.004H121.354V159.942H161.947V157.004Z" fill="#FF25C2"/>
<path d="M236.48 164.877H220.999V167.815H236.48V164.877Z" fill="#A6A6A6"/>
<path d="M231.282 157.004H166.455V159.942H231.282V157.004Z" fill="#A6A6A6"/>
<path d="M190.889 180.611H113.506V183.549H190.889V180.611Z" fill="#FF25C2"/>
<path d="M269.616 149.143H227.678V152.081H269.616V149.143Z" fill="#FF25C2"/>
<path d="M224.351 149.143H185.741V152.081H224.351V149.143Z" fill="#EBEBEB"/>
<path d="M260.387 157.004H234.333V159.942H260.387V157.004Z" fill="#EBEBEB"/>
<path d="M115.691 157.004H107.642V159.942H115.691V157.004Z" fill="#EBEBEB"/>
<path d="M107.642 164.877H99.594V167.815H107.642V164.877Z" fill="#A6A6A6"/>
<path d="M161.068 164.877H113.506V167.815H161.068V164.877Z" fill="#EBEBEB"/>
<path d="M168.916 188.484H121.354V191.422H168.916V188.484Z" fill="#EBEBEB"/>
<path d="M246.211 196.357H210.05V199.295H246.211V196.357Z" fill="#FF25C2"/>
<path d="M220.484 188.484H172.783V191.422H220.484V188.484Z" fill="#FF25C2"/>
<path d="M205.894 196.357H164.371V199.295H205.894V196.357Z" fill="#EBEBEB"/>
<path d="M135.128 196.357H121.354V199.295H135.128V196.357Z" fill="#A6A6A6"/>
<path d="M226.059 172.75H174.654V175.688H226.059V172.75Z" fill="#EBEBEB"/>
<path d="M262.095 172.75H229.386V175.688H262.095V172.75Z" fill="#FF25C2"/>
<path d="M217.244 164.877H165.903V167.815H217.244V164.877Z" fill="#FF25C2"/>
<path d="M107.642 172.75H99.594V175.688H107.642V172.75Z" fill="#EBEBEB"/>
<path d="M107.642 180.611H99.594V183.549H107.642V180.611Z" fill="#EBEBEB"/>
<path d="M115.691 188.484H107.642V191.422H115.691V188.484Z" fill="#A6A6A6"/>
<path d="M115.691 196.357H107.642V199.295H115.691V196.357Z" fill="#EBEBEB"/>
<path d="M107.642 202.937H99.594V205.875H107.642V202.937Z" fill="#EBEBEB"/>
<path d="M205.831 202.937H113.506V205.875H205.831V202.937Z" fill="#EBEBEB"/>
<path d="M115.691 210.81H107.642V213.748H115.691V210.81Z" fill="#EBEBEB"/>
<path d="M181.937 210.81H121.354V213.748H181.937V210.81Z" fill="#A6A6A6"/>
<path d="M171.377 234.416H113.506V237.355H171.377V234.416Z" fill="#A6A6A6"/>
<path d="M161.947 218.683H121.354V221.621H161.947V218.683Z" fill="#FF25C2"/>
<path d="M231.282 218.683H166.455V221.621H231.282V218.683Z" fill="#A6A6A6"/>
<path d="M190.889 242.277H113.506V245.215H190.889V242.277Z" fill="#FF25C2"/>
<path d="M269.616 210.81H227.678V213.748H269.616V210.81Z" fill="#FF25C2"/>
<path d="M224.351 210.81H185.741V213.748H224.351V210.81Z" fill="#EBEBEB"/>
<path d="M260.387 218.683H234.333V221.621H260.387V218.683Z" fill="#EBEBEB"/>
<path d="M115.691 218.683H107.642V221.621H115.691V218.683Z" fill="#EBEBEB"/>
<path d="M107.642 226.543H99.594V229.481H107.642V226.543Z" fill="#A6A6A6"/>
<path d="M161.068 226.543H113.506V229.481H161.068V226.543Z" fill="#EBEBEB"/>
<path d="M226.059 234.416H174.654V237.355H226.059V234.416Z" fill="#EBEBEB"/>
<path d="M217.244 226.543H165.903V229.481H217.244V226.543Z" fill="#FF25C2"/>
<path d="M107.642 234.416H99.594V237.355H107.642V234.416Z" fill="#EBEBEB"/>
<path d="M104.566 133.535C104.697 133.667 104.771 133.845 104.771 134.031C104.771 134.217 104.697 134.395 104.566 134.527C104.433 134.655 104.255 134.727 104.07 134.727C103.885 134.727 103.707 134.655 103.574 134.527L100.473 131.375C100.466 131.355 100.466 131.333 100.473 131.313C100.468 131.283 100.468 131.254 100.473 131.225C100.468 131.2 100.468 131.174 100.473 131.149V131.074C100.473 131.074 100.473 131.074 100.473 130.999V130.923C100.468 130.894 100.468 130.864 100.473 130.835C100.473 130.835 100.473 130.748 100.473 130.735C100.488 130.702 100.515 130.675 100.548 130.66L103.649 127.508C103.783 127.38 103.961 127.308 104.145 127.308C104.33 127.308 104.508 127.38 104.641 127.508C104.773 127.64 104.846 127.818 104.846 128.004C104.846 128.19 104.773 128.368 104.641 128.5L102.03 131.137L104.566 133.535Z" fill="#FF25C2"/>
<path d="M107.379 133.887L110.091 127.446C110.121 127.372 110.166 127.306 110.222 127.249C110.279 127.193 110.345 127.149 110.419 127.119C110.492 127.088 110.571 127.073 110.65 127.073C110.73 127.073 110.808 127.089 110.882 127.119C110.955 127.15 111.022 127.194 111.078 127.251C111.134 127.307 111.179 127.374 111.209 127.447C111.239 127.52 111.255 127.599 111.255 127.679C111.255 127.758 111.239 127.837 111.208 127.91L108.496 134.364C108.448 134.473 108.368 134.565 108.268 134.63C108.167 134.695 108.051 134.729 107.931 134.728C107.861 134.746 107.788 134.746 107.718 134.728C107.635 134.702 107.56 134.657 107.496 134.598C107.433 134.539 107.383 134.467 107.351 134.387C107.319 134.307 107.304 134.22 107.309 134.134C107.314 134.047 107.338 133.963 107.379 133.887Z" fill="#FF25C2"/>
<path d="M116.544 131.288C116.526 131.319 116.5 131.345 116.469 131.363L113.368 134.515C113.23 134.641 113.052 134.712 112.866 134.716C112.683 134.714 112.507 134.642 112.376 134.515C112.245 134.383 112.171 134.205 112.171 134.019C112.171 133.833 112.245 133.655 112.376 133.523L114.988 130.873L112.376 128.237C112.245 128.105 112.171 127.927 112.171 127.741C112.171 127.555 112.245 127.377 112.376 127.245C112.509 127.117 112.687 127.045 112.872 127.045C113.057 127.045 113.234 127.117 113.368 127.245L116.469 130.396C116.503 130.411 116.529 130.438 116.544 130.472C116.57 130.502 116.591 130.536 116.607 130.572C116.602 130.605 116.602 130.639 116.607 130.673V130.748V130.899C116.604 130.932 116.604 130.966 116.607 130.999L116.544 131.288Z" fill="#FF25C2"/>
<path d="M315.282 72.3083H230.278V103.788H315.282V72.3083Z" fill="#455A64"/>
<path d="M242.545 94.5709V80.6086C242.545 80.2756 242.677 79.9562 242.913 79.7207C243.148 79.4853 243.468 79.353 243.801 79.353C243.972 79.3427 244.143 79.3675 244.304 79.426C244.465 79.4845 244.613 79.5754 244.738 79.693C244.862 79.8106 244.961 79.9525 245.029 80.11C245.097 80.2675 245.132 80.4372 245.131 80.6086V86.2839H251.259V80.6086C251.259 80.2756 251.391 79.9562 251.627 79.7207C251.862 79.4853 252.181 79.353 252.514 79.353C252.686 79.3427 252.857 79.3675 253.018 79.426C253.179 79.4845 253.327 79.5754 253.451 79.693C253.576 79.8106 253.675 79.9525 253.743 80.11C253.811 80.2675 253.846 80.4372 253.845 80.6086V94.5709C253.846 94.7424 253.811 94.912 253.743 95.0695C253.675 95.227 253.576 95.3689 253.451 95.4865C253.327 95.6042 253.179 95.695 253.018 95.7535C252.857 95.812 252.686 95.8368 252.514 95.8265C252.181 95.8265 251.862 95.6943 251.627 95.4588C251.391 95.2233 251.259 94.9039 251.259 94.5709V88.8956H245.131V94.5709C245.132 94.7424 245.097 94.912 245.029 95.0695C244.961 95.227 244.862 95.3689 244.738 95.4865C244.613 95.6042 244.465 95.695 244.304 95.7535C244.143 95.812 243.972 95.8368 243.801 95.8265C243.468 95.8265 243.148 95.6943 242.913 95.4588C242.677 95.2233 242.545 94.9039 242.545 94.5709Z" fill="white"/>
<path d="M269.44 81.9396H265.673V94.571C265.673 94.9173 265.536 95.2495 265.291 95.4944C265.046 95.7393 264.714 95.8768 264.367 95.8768C264.021 95.8768 263.689 95.7393 263.444 95.4944C263.199 95.2495 263.062 94.9173 263.062 94.571V81.9396H259.295C259.123 81.9399 258.954 81.9051 258.796 81.8373C258.639 81.7696 258.497 81.6703 258.379 81.5456C258.262 81.4209 258.171 81.2734 258.112 81.1123C258.054 80.9512 258.029 80.7798 258.039 80.6086C258.039 80.2756 258.171 79.9563 258.407 79.7208C258.642 79.4853 258.962 79.353 259.295 79.353H269.34C269.673 79.353 269.992 79.4853 270.227 79.7208C270.463 79.9563 270.595 80.2756 270.595 80.6086C270.598 80.9332 270.482 81.2476 270.269 81.4927C270.057 81.7378 269.762 81.8967 269.44 81.9396Z" fill="white"/>
<path d="M288.889 80.6088V94.5711C288.867 94.9098 288.718 95.2276 288.471 95.4605C288.224 95.6935 287.898 95.8243 287.559 95.8267C287.226 95.8267 286.906 95.6944 286.671 95.459C286.435 95.2235 286.303 94.9041 286.303 94.5711V84.6141L282.888 89.3478C282.77 89.5177 282.612 89.6558 282.428 89.75C282.244 89.8442 282.04 89.8915 281.833 89.8877C281.621 89.8892 281.412 89.8411 281.223 89.7474C281.033 89.6536 280.868 89.5168 280.741 89.3478L277.363 84.6141V94.5711C277.363 94.9191 277.225 95.2529 276.979 95.4989C276.733 95.745 276.399 95.8832 276.051 95.8832C275.703 95.8832 275.369 95.745 275.123 95.4989C274.877 95.2529 274.739 94.9191 274.739 94.5711V80.6088C274.739 80.2758 274.871 79.9564 275.107 79.7209C275.342 79.4854 275.661 79.3532 275.994 79.3532H276.07C276.274 79.3515 276.476 79.3997 276.658 79.4938C276.839 79.5879 276.995 79.725 277.112 79.8931L281.82 86.4222L286.529 79.8931C286.648 79.7214 286.808 79.5821 286.994 79.4879C287.181 79.3936 287.387 79.3473 287.596 79.3532C287.929 79.3649 288.246 79.4999 288.485 79.7319C288.724 79.9639 288.868 80.2764 288.889 80.6088Z" fill="white"/>
<path d="M294.615 94.5712V80.6089C294.615 80.2759 294.747 79.9565 294.983 79.721C295.218 79.4855 295.538 79.3533 295.871 79.3533C296.041 79.3447 296.211 79.3709 296.37 79.4302C296.53 79.4895 296.676 79.5806 296.799 79.6981C296.923 79.8155 297.021 79.9568 297.088 80.1134C297.155 80.27 297.189 80.4386 297.189 80.6089V93.2403H303.605C303.955 93.2403 304.29 93.3792 304.537 93.6264C304.785 93.8737 304.924 94.209 304.924 94.5587C304.924 94.9083 304.785 95.2437 304.537 95.4909C304.29 95.7382 303.955 95.8771 303.605 95.8771H295.871C295.701 95.8772 295.534 95.8431 295.378 95.7769C295.222 95.7107 295.082 95.6137 294.965 95.4917C294.847 95.3698 294.756 95.2253 294.696 95.0672C294.636 94.909 294.608 94.7403 294.615 94.5712Z" fill="white"/>
<path d="M88.1302 192.552H18.0798V224.032H88.1302V192.552Z" fill="#455A64"/>
<path d="M38.8851 209.691H36.0097V214.827C36.0097 215.175 35.8715 215.509 35.6254 215.755C35.3793 216.001 35.0456 216.139 34.6976 216.139C34.3496 216.139 34.0159 216.001 33.7698 215.755C33.5237 215.509 33.3855 215.175 33.3855 214.827V200.827C33.3855 200.494 33.5178 200.174 33.7533 199.939C33.9887 199.703 34.3081 199.571 34.6411 199.571H38.8851C40.2271 199.571 41.5141 200.104 42.4631 201.053C43.412 202.002 43.9452 203.289 43.9452 204.631C43.9452 205.973 43.412 207.26 42.4631 208.209C41.5141 209.158 40.2271 209.691 38.8851 209.691ZM36.0097 207.105H38.8851C39.5311 207.105 40.1507 206.848 40.6075 206.391C41.0643 205.935 41.3209 205.315 41.3209 204.669C41.3209 204.023 41.0643 203.403 40.6075 202.947C40.1507 202.49 39.5311 202.233 38.8851 202.233H36.0097V207.105Z" fill="white"/>
<path d="M47.1721 214.826V200.826C47.1721 200.493 47.3044 200.174 47.5399 199.939C47.7753 199.703 48.0947 199.571 48.4277 199.571C48.7607 199.571 49.0801 199.703 49.3156 199.939C49.5511 200.174 49.6833 200.493 49.6833 200.826V206.502H55.8107V200.826C55.8107 200.493 55.943 200.174 56.1785 199.939C56.4139 199.703 56.7333 199.571 57.0663 199.571C57.2374 199.56 57.4088 199.585 57.57 199.644C57.7311 199.702 57.8786 199.793 58.0033 199.911C58.128 200.028 58.2273 200.17 58.295 200.328C58.3628 200.485 58.3976 200.655 58.3973 200.826V214.789C58.3976 214.96 58.3628 215.13 58.295 215.287C58.2273 215.445 58.128 215.587 58.0033 215.704C57.8786 215.822 57.7311 215.913 57.57 215.971C57.4088 216.03 57.2374 216.055 57.0663 216.044C56.7333 216.044 56.4139 215.912 56.1785 215.677C55.943 215.441 55.8107 215.122 55.8107 214.789V209.113H49.7963V214.789C49.7963 215.122 49.6641 215.441 49.4286 215.677C49.1931 215.912 48.8737 216.044 48.5407 216.044C48.3697 216.06 48.1973 216.04 48.0343 215.986C47.8712 215.933 47.7209 215.846 47.5926 215.732C47.4643 215.618 47.3608 215.478 47.2885 215.323C47.2162 215.167 47.1766 214.998 47.1721 214.826Z" fill="white"/>
<path d="M69.4845 209.691H66.5715V214.827C66.5715 215.175 66.4332 215.509 66.1872 215.755C65.9411 216.001 65.6074 216.139 65.2594 216.139C64.9114 216.139 64.5776 216.001 64.3316 215.755C64.0855 215.509 63.9473 215.175 63.9473 214.827V200.827C63.9473 200.494 64.0796 200.174 64.315 199.939C64.5505 199.703 64.8699 199.571 65.2029 199.571H69.4343C70.7763 199.571 72.0634 200.104 73.0123 201.053C73.9613 202.002 74.4944 203.289 74.4944 204.631C74.4944 205.973 73.9613 207.26 73.0123 208.209C72.0634 209.158 70.7763 209.691 69.4343 209.691H69.4845ZM66.5715 207.105H69.4845C70.1305 207.105 70.7501 206.848 71.2069 206.391C71.6637 205.935 71.9204 205.315 71.9204 204.669C71.9204 204.023 71.6637 203.403 71.2069 202.947C70.7501 202.49 70.1305 202.233 69.4845 202.233H66.5715V207.105Z" fill="white"/>
<path d="M294.615 190.505L299.926 203.338L294.615 205.536L289.279 192.615L280.502 199.421V163.27L305.815 188.835L294.615 190.505Z" fill="#263238"/>
<path d="M280.502 159.389C280.28 158.808 280.169 158.191 280.175 157.569C280.162 156.946 280.272 156.327 280.502 155.748C280.727 156.328 280.834 156.947 280.816 157.569C280.827 158.19 280.721 158.808 280.502 159.389Z" fill="#263238"/>
<path d="M277.363 160.646C276.8 160.39 276.289 160.032 275.856 159.591C275.404 159.163 275.045 158.645 274.802 158.072C275.368 158.327 275.879 158.689 276.308 159.139C276.76 159.563 277.12 160.076 277.363 160.646Z" fill="#263238"/>
<path d="M276.07 163.747C274.899 164.181 273.611 164.181 272.441 163.747C273.614 163.328 274.896 163.328 276.07 163.747Z" fill="#263238"/>
<path d="M277.363 166.924C277.12 167.494 276.76 168.007 276.308 168.431C275.879 168.88 275.368 169.243 274.802 169.498C275.045 168.924 275.404 168.407 275.856 167.979C276.289 167.537 276.8 167.18 277.363 166.924Z" fill="#263238"/>
<path d="M284.985 163.747C286.162 163.328 287.448 163.328 288.626 163.747C287.451 164.182 286.159 164.182 284.985 163.747Z" fill="#263238"/>
<path d="M283.628 160.646C283.881 160.081 284.239 159.569 284.683 159.139C285.114 158.686 285.63 158.324 286.202 158.072C285.67 159.188 284.757 160.078 283.628 160.583V160.646Z" fill="#263238"/>
<path d="M375.853 314.365C366.172 356.53 346.572 409.909 331.442 420.683C319.237 429.372 255.164 444.666 251.598 445.055C242.746 445.947 225.23 383.464 234.446 380.928C246.01 377.726 300.906 376.018 304.032 372.816C307.159 369.614 327.248 342.404 349.874 311.05C365.469 289.389 381.855 288.209 375.853 314.365Z" fill="#F8D197"/>
<path d="M258.68 441.628C257.625 442.155 242.67 449.677 233.417 452.364C226.523 454.36 206.496 459.584 203.546 452.213C201.524 447.191 212.925 442.72 220.923 439.38C225.142 437.635 230.34 433.215 229.097 430.515C226.925 425.769 216.077 430.515 208.945 434.672C195.133 442.695 176.764 457.123 168.338 450.116C165.162 447.479 168.853 442.658 174.265 437.936C165.476 443.436 156.121 447.982 152.468 445.156C150.383 443.562 150.283 441.389 151.451 438.878C148.738 439.757 146.34 439.581 144.67 437.823C141.82 434.835 143.201 430.427 146.328 425.907C145.792 425.847 145.278 425.662 144.829 425.365C144.379 425.068 144.006 424.668 143.741 424.199C137.689 414.983 167.937 388.526 178.408 386.052C209.183 378.731 241.917 381.406 241.917 381.406C254.009 391.062 258.705 441.603 258.68 441.628Z" fill="#F8D197"/>
<path d="M213.415 413.287C206.088 414.428 199.088 417.121 192.886 421.185C185.076 426.346 179.903 432.373 173.361 438.438C173.337 438.472 173.325 438.513 173.327 438.555C173.33 438.597 173.346 438.637 173.373 438.669C173.4 438.7 173.437 438.722 173.478 438.73C173.519 438.738 173.562 438.733 173.6 438.714C176.713 435.826 189.646 424.977 192.986 422.516C199.015 417.968 206.002 414.855 213.415 413.412C213.528 413.4 213.503 413.274 213.415 413.287Z" fill="#263238"/>
<path d="M207.689 400.228C199.603 402.438 191.366 404.673 183.833 408.503C175.608 412.684 169.18 419.515 162.864 426.082C159.064 430.025 155.355 434.056 151.739 438.174C151.589 438.338 151.815 438.614 151.978 438.438C158.39 431.658 165.007 425.069 171.829 418.674C178.117 412.707 185.52 408.039 193.614 404.937C198.247 403.179 202.993 401.773 207.739 400.366C207.802 400.341 207.777 400.203 207.689 400.228Z" fill="#263238"/>
<path d="M199.051 388.801C191.191 390.421 184.335 391.802 177.366 396.009C168.163 401.584 159.26 410.976 156.146 414.316C152.694 417.995 149.379 421.85 146.102 425.617C145.963 425.768 146.24 426.007 146.378 425.843C153.85 417.422 161.857 409.491 170.347 402.099C174.343 398.522 178.866 395.583 183.757 393.384C188.715 391.434 193.832 389.918 199.051 388.851C199.051 388.851 199.076 388.801 199.051 388.801Z" fill="#263238"/>
<path d="M304.497 366.664L363.51 364.152C363.51 364.152 374.233 334.883 378.176 308.903C382.118 282.923 359.982 292.24 338.072 320.204C316.161 348.168 304.497 366.664 304.497 366.664Z" fill="#FF25C2"/>
<path d="M323.821 348.996C324.222 348.883 324.624 348.846 325.076 348.758C325.426 348.681 325.788 348.683 326.137 348.765C326.486 348.847 326.812 349.005 327.091 349.229C327.37 349.453 327.596 349.737 327.752 350.059C327.907 350.382 327.988 350.735 327.989 351.093C327.982 351.415 328.058 351.733 328.21 352.017C328.362 352.301 328.584 352.541 328.856 352.713C329.153 352.906 329.494 353.022 329.848 353.052C330.249 353.128 330.651 353.178 331.103 353.291C330.701 353.404 330.3 353.454 329.848 353.542C329.396 353.632 328.928 353.584 328.504 353.404C328.059 353.21 327.679 352.89 327.412 352.485C327.144 352.079 327 351.604 326.997 351.119C326.994 350.8 326.908 350.487 326.747 350.212C326.586 349.937 326.357 349.708 326.081 349.549C325.775 349.369 325.43 349.266 325.076 349.248C324.624 349.172 324.222 349.122 323.821 348.996ZM365.344 313.134C365.702 313.161 366.05 313.268 366.361 313.448C366.635 313.61 366.863 313.839 367.024 314.113C367.184 314.388 367.272 314.7 367.277 315.018C367.28 315.504 367.424 315.978 367.692 316.384C367.959 316.79 368.339 317.109 368.784 317.303C369.209 317.48 369.677 317.524 370.127 317.429C370.529 317.353 370.931 317.303 371.383 317.19C370.981 317.077 370.579 317.027 370.127 316.952C369.774 316.924 369.432 316.807 369.135 316.613C368.866 316.437 368.646 316.197 368.495 315.914C368.343 315.631 368.266 315.314 368.269 314.993C368.252 314.505 368.094 314.033 367.813 313.633C367.532 313.234 367.141 312.926 366.687 312.745C366.256 312.594 365.791 312.564 365.344 312.657C364.942 312.733 364.54 312.783 364.151 312.896C364.552 313.009 364.954 313.059 365.344 313.134ZM366.85 336.151C366.579 336.386 366.257 336.554 365.909 336.641C365.603 336.723 365.282 336.725 364.976 336.646C364.67 336.567 364.39 336.409 364.163 336.189C363.819 335.844 363.381 335.607 362.904 335.506C362.427 335.406 361.931 335.447 361.476 335.624C361.052 335.806 360.69 336.107 360.434 336.49C360.208 336.829 359.957 337.143 359.756 337.507C360.12 337.306 360.434 337.055 360.773 336.829C361.048 336.605 361.37 336.446 361.715 336.364C362.03 336.298 362.356 336.313 362.664 336.407C362.971 336.501 363.25 336.673 363.473 336.904C363.728 337.165 364.04 337.364 364.383 337.486C364.727 337.609 365.094 337.652 365.457 337.612C365.819 337.572 366.168 337.45 366.477 337.256C366.786 337.062 367.047 336.8 367.24 336.49C367.466 336.151 367.717 335.824 367.918 335.46C367.516 335.674 367.202 335.925 366.863 336.151H366.85ZM350.804 309.305C350.529 309.538 350.208 309.709 349.862 309.807C349.554 309.884 349.231 309.882 348.923 309.801C348.616 309.72 348.334 309.562 348.104 309.342L347.79 309.066C347.552 309.305 347.326 309.543 347.1 309.794C347.22 309.867 347.329 309.956 347.426 310.058C347.782 310.393 348.229 310.617 348.711 310.702C349.193 310.786 349.689 310.728 350.138 310.535C350.551 310.339 350.899 310.03 351.143 309.644C351.369 309.305 351.62 308.991 351.821 308.627C351.532 308.815 351.155 309.079 350.816 309.305H350.804ZM344.136 331.417C344.112 331.774 344.009 332.122 343.835 332.434C343.672 332.707 343.443 332.934 343.168 333.094C342.894 333.255 342.583 333.343 342.265 333.351C341.777 333.352 341.3 333.494 340.892 333.762C340.484 334.03 340.163 334.41 339.968 334.858C339.798 335.28 339.754 335.742 339.842 336.189C339.93 336.59 339.968 336.992 340.081 337.444C340.194 337.042 340.244 336.641 340.332 336.189C340.366 335.838 340.477 335.499 340.658 335.197C340.834 334.929 341.075 334.711 341.358 334.561C341.641 334.412 341.958 334.337 342.278 334.343C342.768 334.328 343.243 334.171 343.645 333.89C344.046 333.609 344.357 333.216 344.538 332.761C344.684 332.328 344.714 331.865 344.626 331.417C344.538 331.015 344.488 330.613 344.375 330.161C344.262 330.613 344.224 331.015 344.136 331.417ZM361.037 353.906C361.018 354.264 360.915 354.613 360.735 354.923C360.574 355.198 360.345 355.426 360.07 355.587C359.796 355.747 359.484 355.834 359.166 355.84C358.681 355.842 358.208 355.984 357.803 356.249C357.397 356.514 357.077 356.891 356.881 357.334C356.701 357.758 356.653 358.226 356.743 358.678C356.831 359.08 356.881 359.481 356.994 359.933C357.107 359.532 357.157 359.13 357.232 358.678C357.265 358.325 357.381 357.985 357.571 357.686C357.746 357.417 357.986 357.197 358.27 357.047C358.553 356.898 358.871 356.823 359.191 356.832C359.679 356.815 360.151 356.657 360.55 356.376C360.95 356.095 361.258 355.703 361.439 355.25C361.59 354.818 361.62 354.354 361.526 353.906C361.451 353.504 361.401 353.103 361.288 352.65C361.175 353.103 361.125 353.504 361.037 353.906Z" fill="white"/>
<path d="M365.557 351.345C352.787 351.018 339.98 351.583 327.211 352.4C323.594 352.642 319.987 352.96 316.387 353.354C316.287 353.354 316.274 353.517 316.387 353.517C322.766 353.517 329.144 353.304 335.523 353.115C341.901 352.927 348.33 352.663 354.721 352.299C358.337 352.086 361.941 351.872 365.544 351.583C365.708 351.571 365.72 351.345 365.557 351.345Z" fill="#263238"/>
<path d="M321.058 461.04H471.731C473.389 458.002 448.678 325.967 397.851 288.787C386.551 280.55 366.574 285.849 361.012 293.872C333.087 334.18 321.058 461.04 321.058 461.04Z" fill="#FF25C2"/>
<path d="M384.981 348.996C385.383 348.883 385.785 348.846 386.237 348.758C386.586 348.681 386.949 348.683 387.298 348.765C387.646 348.847 387.972 349.005 388.252 349.229C388.531 349.453 388.757 349.737 388.912 350.059C389.067 350.382 389.149 350.735 389.15 351.093C389.143 351.415 389.219 351.733 389.37 352.017C389.522 352.301 389.745 352.541 390.016 352.713C390.315 352.904 390.655 353.02 391.008 353.052C391.41 353.128 391.812 353.178 392.264 353.291C391.862 353.404 391.46 353.454 391.008 353.542C390.556 353.632 390.088 353.584 389.664 353.404C389.219 353.21 388.84 352.89 388.572 352.485C388.305 352.079 388.161 351.604 388.158 351.119C388.155 350.8 388.068 350.487 387.908 350.212C387.747 349.937 387.517 349.708 387.241 349.549C386.936 349.368 386.591 349.264 386.237 349.248C385.785 349.172 385.433 349.122 384.981 348.996ZM408.398 428.694C408.753 428.72 409.096 428.827 409.403 429.008C409.678 429.165 409.907 429.392 410.068 429.665C410.228 429.938 410.315 430.248 410.319 430.565C410.32 431.053 410.463 431.53 410.73 431.938C410.998 432.346 411.379 432.668 411.826 432.863C412.252 433.033 412.719 433.077 413.169 432.988C413.571 432.913 413.973 432.863 414.425 432.75C414.023 432.637 413.621 432.587 413.169 432.499C412.816 432.476 412.475 432.364 412.178 432.172C411.909 431.997 411.688 431.757 411.537 431.473C411.385 431.19 411.308 430.874 411.311 430.552C411.304 430.062 411.15 429.585 410.867 429.184C410.585 428.783 410.188 428.477 409.729 428.305C409.303 428.147 408.841 428.116 408.398 428.217C407.996 428.292 407.595 428.342 407.143 428.455C407.595 428.581 408.034 428.631 408.398 428.707V428.694ZM436.022 353.542C436.376 353.56 436.72 353.663 437.026 353.843C437.302 354.003 437.532 354.231 437.693 354.507C437.853 354.782 437.939 355.094 437.943 355.413C437.946 355.899 438.09 356.373 438.357 356.779C438.625 357.185 439.004 357.504 439.449 357.698C439.873 357.879 440.341 357.927 440.793 357.836C441.195 357.749 441.596 357.698 442.048 357.585C441.647 357.472 441.245 357.422 440.793 357.347C440.439 357.317 440.099 357.2 439.801 357.008C439.529 356.835 439.307 356.595 439.155 356.311C439.003 356.028 438.927 355.71 438.935 355.388C438.933 355.03 438.852 354.676 438.697 354.354C438.542 354.031 438.316 353.747 438.036 353.524C437.757 353.3 437.431 353.141 437.082 353.059C436.734 352.978 436.371 352.975 436.022 353.052C435.62 353.14 435.218 353.178 434.766 353.291C435.243 353.416 435.657 353.467 436.047 353.555L436.022 353.542ZM365.343 313.134C365.702 313.161 366.049 313.268 366.36 313.448C366.635 313.61 366.863 313.839 367.024 314.113C367.184 314.388 367.271 314.7 367.277 315.018C367.28 315.504 367.424 315.978 367.692 316.384C367.959 316.79 368.338 317.109 368.784 317.303C369.208 317.48 369.677 317.524 370.127 317.429C370.529 317.354 370.931 317.303 371.383 317.19C370.981 317.077 370.579 317.027 370.127 316.952C369.773 316.924 369.432 316.807 369.135 316.613C368.866 316.437 368.646 316.197 368.494 315.914C368.343 315.631 368.265 315.314 368.269 314.993C368.252 314.505 368.094 314.033 367.813 313.633C367.532 313.234 367.14 312.926 366.687 312.745C366.255 312.594 365.791 312.564 365.343 312.657C364.942 312.733 364.54 312.783 364.15 312.896C364.552 313.009 364.954 313.059 365.343 313.134ZM408.85 312.23C409.207 312.254 409.555 312.357 409.867 312.532C410.14 312.695 410.367 312.924 410.527 313.199C410.688 313.473 410.776 313.784 410.784 314.101C410.785 314.589 410.927 315.067 411.195 315.475C411.463 315.883 411.843 316.204 412.291 316.399C412.717 316.569 413.183 316.613 413.634 316.525C414.023 316.437 414.425 316.387 414.827 316.286C414.425 316.173 414.023 316.123 413.634 316.035C413.279 316.003 412.936 315.891 412.63 315.709C412.362 315.533 412.143 315.292 411.994 315.009C411.845 314.725 411.77 314.409 411.776 314.089C411.761 313.599 411.604 313.124 411.323 312.722C411.042 312.32 410.649 312.01 410.194 311.829C409.762 311.677 409.298 311.647 408.85 311.741C408.448 311.829 408.047 311.879 407.595 311.992C408.034 312.092 408.461 312.142 408.863 312.23H408.85ZM354.671 382.548C355.028 382.572 355.375 382.675 355.688 382.849C355.959 383.013 356.184 383.243 356.342 383.518C356.5 383.792 356.586 384.102 356.592 384.419C356.592 384.907 356.735 385.384 357.003 385.792C357.271 386.2 357.651 386.522 358.098 386.717C358.525 386.887 358.991 386.931 359.442 386.842C359.844 386.767 360.246 386.717 360.698 386.604C360.296 386.491 359.894 386.441 359.442 386.353C359.09 386.325 358.75 386.213 358.45 386.026C358.181 385.851 357.961 385.611 357.809 385.327C357.658 385.044 357.58 384.728 357.584 384.406C357.579 383.916 357.425 383.438 357.142 383.037C356.86 382.635 356.462 382.329 356.002 382.159C355.576 382 355.113 381.969 354.671 382.071C354.269 382.146 353.867 382.196 353.415 382.309C353.88 382.372 354.281 382.423 354.683 382.498L354.671 382.548ZM402.108 455.377C402.465 455.4 402.813 455.503 403.125 455.678C403.397 455.842 403.624 456.071 403.785 456.345C403.945 456.62 404.033 456.93 404.041 457.248C404.049 457.725 404.193 458.189 404.455 458.587C404.718 458.985 405.088 459.3 405.523 459.496C405.949 459.666 406.416 459.71 406.866 459.621C407.268 459.533 407.67 459.483 408.122 459.37C407.72 459.257 407.318 459.219 406.866 459.132C406.512 459.104 406.171 458.987 405.874 458.793C405.605 458.621 405.383 458.383 405.232 458.102C405.08 457.82 405.003 457.505 405.008 457.185C405.007 456.826 404.925 456.471 404.769 456.147C404.613 455.822 404.387 455.537 404.106 455.312C403.826 455.087 403.498 454.928 403.148 454.845C402.798 454.763 402.434 454.76 402.082 454.837C401.681 454.925 401.291 454.975 400.827 455.088C401.329 455.164 401.756 455.214 402.12 455.302L402.108 455.377ZM378.753 416.263C379.111 416.281 379.46 416.385 379.77 416.564C380.045 416.724 380.273 416.953 380.431 417.229C380.59 417.504 380.674 417.816 380.674 418.134C380.677 418.62 380.821 419.094 381.089 419.5C381.356 419.905 381.736 420.225 382.181 420.419C382.605 420.599 383.073 420.647 383.525 420.557C383.926 420.469 384.328 420.419 384.78 420.306C384.378 420.193 383.977 420.143 383.525 420.068C383.172 420.035 382.831 419.919 382.533 419.729C382.251 419.554 382.021 419.307 381.869 419.013C381.716 418.719 381.646 418.389 381.666 418.059C381.663 417.7 381.58 417.346 381.424 417.024C381.267 416.701 381.04 416.418 380.76 416.194C380.479 415.97 380.153 415.812 379.803 415.73C379.454 415.649 379.091 415.646 378.741 415.723C378.339 415.798 377.937 415.849 377.485 415.962C377.962 416.049 378.364 416.1 378.766 416.188L378.753 416.263ZM325.264 456.357C324.911 456.324 324.571 456.208 324.272 456.018C324.001 455.846 323.779 455.606 323.629 455.322C323.479 455.038 323.406 454.719 323.419 454.398C323.401 453.939 323.258 453.495 323.006 453.112C322.754 452.729 322.401 452.422 321.987 452.225C321.987 452.552 321.912 452.853 321.887 453.155C322.055 453.317 322.188 453.513 322.279 453.728C322.37 453.944 322.416 454.176 322.414 454.41C322.417 454.896 322.561 455.371 322.829 455.776C323.096 456.182 323.476 456.501 323.921 456.696C324.345 456.875 324.813 456.923 325.264 456.834C325.666 456.746 326.068 456.696 326.52 456.583C326.08 456.407 325.679 456.357 325.277 456.281L325.264 456.357ZM335.535 423.37C335.893 423.388 336.242 423.492 336.552 423.671C336.827 423.833 337.055 424.062 337.215 424.336C337.376 424.611 337.463 424.923 337.469 425.241C337.472 425.727 337.616 426.201 337.883 426.607C338.151 427.013 338.53 427.332 338.976 427.526C339.399 427.707 339.868 427.755 340.319 427.664C340.721 427.577 341.11 427.526 341.512 427.413C341.11 427.3 340.721 427.25 340.319 427.175C339.965 427.147 339.624 427.03 339.327 426.836C339.054 426.665 338.83 426.425 338.678 426.141C338.526 425.857 338.451 425.538 338.461 425.216C338.444 424.728 338.285 424.256 338.004 423.856C337.723 423.457 337.332 423.149 336.879 422.968C336.447 422.817 335.983 422.787 335.535 422.88C335.133 422.968 334.732 423.006 334.28 423.119C334.744 423.157 335.209 423.207 335.548 423.295L335.535 423.37ZM398.642 383.528C399 383.555 399.348 383.663 399.659 383.841C399.933 384.003 400.162 384.232 400.322 384.507C400.483 384.781 400.57 385.093 400.576 385.411C400.579 385.897 400.723 386.371 400.99 386.777C401.258 387.183 401.637 387.502 402.082 387.696C402.503 387.872 402.967 387.916 403.413 387.822C403.815 387.747 404.217 387.696 404.669 387.583C404.267 387.47 403.865 387.42 403.413 387.345C403.06 387.312 402.72 387.196 402.421 387.006C402.154 386.83 401.935 386.589 401.786 386.306C401.637 386.022 401.562 385.706 401.568 385.386C401.551 384.898 401.392 384.426 401.111 384.026C400.83 383.627 400.439 383.319 399.986 383.138C399.554 382.987 399.09 382.957 398.642 383.05C398.24 383.126 397.838 383.176 397.386 383.289C397.851 383.327 398.253 383.377 398.655 383.452L398.642 383.528ZM453.889 437.095C454.242 437.118 454.585 437.221 454.893 437.396C455.168 437.557 455.396 437.786 455.557 438.061C455.717 438.336 455.804 438.647 455.81 438.965C455.811 439.453 455.954 439.931 456.221 440.339C456.489 440.747 456.869 441.068 457.317 441.263C457.743 441.434 458.21 441.477 458.66 441.389C459.062 441.301 459.464 441.251 459.916 441.138C459.514 441.025 459.112 440.987 458.66 440.899C458.307 440.869 457.966 440.753 457.668 440.56C457.399 440.389 457.177 440.151 457.026 439.869C456.874 439.588 456.797 439.273 456.802 438.953C456.803 438.594 456.723 438.239 456.568 437.915C456.414 437.591 456.188 437.305 455.909 437.08C455.629 436.855 455.302 436.695 454.953 436.613C454.603 436.53 454.24 436.528 453.889 436.605C453.487 436.693 453.085 436.743 452.633 436.856C453.123 436.894 453.525 436.894 453.926 437.019L453.889 437.095ZM431.941 404.447C432.298 404.469 432.646 404.572 432.958 404.748C433.231 404.911 433.458 405.141 433.618 405.415C433.778 405.69 433.866 406 433.874 406.318C433.875 406.806 434.018 407.283 434.286 407.691C434.553 408.099 434.934 408.421 435.381 408.616C435.808 408.786 436.274 408.83 436.725 408.741C437.126 408.654 437.528 408.616 437.98 408.503C437.578 408.39 437.177 408.34 436.725 408.252C436.372 408.228 436.031 408.115 435.733 407.925C435.464 407.75 435.243 407.51 435.092 407.226C434.94 406.943 434.863 406.627 434.866 406.305C434.85 405.818 434.691 405.345 434.41 404.946C434.129 404.547 433.738 404.238 433.284 404.058C432.854 403.903 432.389 403.868 431.941 403.957C431.539 404.045 431.15 404.095 430.748 404.208C431.187 404.246 431.577 404.246 431.978 404.321L431.941 404.447ZM366.825 336.277C366.554 336.512 366.231 336.68 365.883 336.766C365.578 336.849 365.257 336.851 364.951 336.771C364.645 336.692 364.365 336.535 364.138 336.314C363.793 335.969 363.356 335.732 362.879 335.632C362.401 335.532 361.905 335.572 361.451 335.749C361.027 335.931 360.665 336.232 360.409 336.616C360.183 336.955 359.932 337.269 359.731 337.633C360.095 337.432 360.409 337.181 360.748 336.955C361.023 336.731 361.345 336.572 361.689 336.49C362.004 336.423 362.331 336.438 362.638 336.533C362.946 336.627 363.224 336.798 363.447 337.03C363.703 337.29 364.014 337.489 364.358 337.612C364.702 337.734 365.069 337.777 365.431 337.738C365.794 337.698 366.143 337.576 366.452 337.382C366.761 337.187 367.021 336.925 367.214 336.616C367.44 336.277 367.691 335.95 367.892 335.586C367.516 335.674 367.202 335.925 366.863 336.151L366.825 336.277ZM431.79 382.9C431.523 383.136 431.205 383.308 430.861 383.402C430.553 383.479 430.23 383.477 429.922 383.396C429.615 383.315 429.333 383.157 429.103 382.937C428.758 382.597 428.322 382.364 427.848 382.266C427.373 382.168 426.88 382.209 426.429 382.385C426.006 382.562 425.644 382.859 425.387 383.239C425.161 383.578 424.909 383.892 424.708 384.256C425.073 384.055 425.387 383.804 425.726 383.578C425.999 383.351 426.321 383.192 426.667 383.113C426.98 383.046 427.305 383.061 427.61 383.156C427.916 383.25 428.192 383.421 428.413 383.653C428.669 383.911 428.981 384.108 429.324 384.229C429.668 384.351 430.034 384.393 430.396 384.353C430.758 384.313 431.106 384.192 431.415 383.999C431.724 383.807 431.985 383.546 432.179 383.239C432.405 382.9 432.656 382.586 432.857 382.222C432.456 382.397 432.142 382.649 431.79 382.9ZM391.272 295.894C391.004 296.13 390.686 296.302 390.342 296.396C390.034 296.48 389.71 296.481 389.401 296.399C389.093 296.318 388.811 296.156 388.585 295.932C388.239 295.589 387.8 295.354 387.323 295.256C386.846 295.158 386.351 295.201 385.898 295.379C385.475 295.557 385.113 295.853 384.855 296.233C384.629 296.585 384.378 296.899 384.177 297.263C384.542 297.062 384.868 296.811 385.207 296.585C385.476 296.359 385.794 296.2 386.136 296.12C386.45 296.053 386.775 296.066 387.083 296.159C387.39 296.251 387.669 296.419 387.894 296.647C388.148 296.911 388.458 297.113 388.801 297.238C389.145 297.363 389.512 297.407 389.876 297.369C390.239 297.33 390.589 297.209 390.898 297.014C391.208 296.819 391.469 296.556 391.661 296.246C391.887 295.894 392.138 295.58 392.339 295.216C391.937 295.404 391.611 295.643 391.272 295.869V295.894ZM390.455 321.648C390.427 322.002 390.32 322.345 390.142 322.652C389.982 322.929 389.754 323.158 389.478 323.319C389.203 323.48 388.891 323.566 388.572 323.569C388.086 323.572 387.612 323.716 387.206 323.984C386.801 324.251 386.481 324.631 386.287 325.076C386.112 325.501 386.064 325.968 386.149 326.419C386.237 326.821 386.287 327.223 386.4 327.675C386.513 327.273 386.563 326.872 386.638 326.419C386.668 326.066 386.785 325.725 386.977 325.428C387.153 325.158 387.393 324.938 387.676 324.787C387.959 324.635 388.276 324.558 388.597 324.561C388.955 324.56 389.309 324.479 389.631 324.323C389.954 324.168 390.237 323.942 390.461 323.663C390.685 323.384 390.844 323.058 390.926 322.709C391.007 322.36 391.009 321.998 390.933 321.648C390.857 321.246 390.807 320.844 390.694 320.392C390.606 320.844 390.556 321.246 390.455 321.648ZM380.888 392.242C380.861 392.6 380.754 392.948 380.574 393.259C380.413 393.533 380.184 393.762 379.909 393.922C379.634 394.083 379.323 394.17 379.004 394.176C378.519 394.179 378.044 394.323 377.638 394.59C377.233 394.858 376.913 395.237 376.719 395.682C376.549 396.109 376.505 396.575 376.594 397.026C376.669 397.428 376.719 397.83 376.832 398.282C376.945 397.88 376.995 397.478 377.083 397.026C377.102 396.672 377.214 396.33 377.41 396.034C377.585 395.765 377.825 395.545 378.109 395.393C378.392 395.242 378.708 395.164 379.029 395.168C379.517 395.151 379.99 394.992 380.389 394.711C380.788 394.43 381.097 394.039 381.277 393.585C381.435 393.155 381.466 392.689 381.365 392.242C381.29 391.853 381.239 391.451 381.126 391.049C381.038 391.451 380.988 391.853 380.913 392.242H380.888ZM430.987 330.714H430.786C430.298 330.715 429.82 330.858 429.412 331.125C429.004 331.393 428.683 331.773 428.488 332.221C428.318 332.647 428.274 333.114 428.362 333.564C428.438 333.966 428.488 334.368 428.601 334.82C428.714 334.418 428.764 334.016 428.852 333.564C428.878 333.212 428.99 332.871 429.178 332.572C429.354 332.303 429.594 332.083 429.877 331.931C430.16 331.78 430.477 331.702 430.798 331.706C431.021 331.706 431.242 331.668 431.451 331.593L430.987 330.714ZM430.635 444.779C430.617 445.137 430.513 445.486 430.334 445.796C430.172 446.071 429.943 446.299 429.669 446.46C429.394 446.62 429.082 446.707 428.764 446.713C428.278 446.716 427.804 446.86 427.398 447.128C426.993 447.395 426.673 447.774 426.479 448.22C426.304 448.645 426.256 449.112 426.341 449.563C426.429 449.965 426.479 450.367 426.592 450.819C426.705 450.43 426.755 450.028 426.83 449.563C426.858 449.209 426.975 448.868 427.169 448.571C427.34 448.298 427.58 448.074 427.864 447.922C428.148 447.77 428.467 447.695 428.789 447.705C429.277 447.688 429.749 447.53 430.149 447.249C430.548 446.968 430.856 446.576 431.037 446.123C431.188 445.691 431.218 445.227 431.125 444.779C431.049 444.377 430.999 443.976 430.886 443.524C430.798 443.976 430.748 444.428 430.635 444.779ZM452.194 380.74C452.198 380.773 452.198 380.807 452.194 380.84C452.034 381.116 451.806 381.346 451.531 381.507C451.255 381.668 450.943 381.754 450.624 381.757C450.138 381.76 449.664 381.904 449.258 382.172C448.853 382.439 448.533 382.819 448.339 383.264C448.159 383.688 448.111 384.156 448.201 384.607C448.289 385.009 448.339 385.411 448.452 385.863C448.565 385.461 448.615 385.059 448.691 384.607C448.723 384.254 448.839 383.914 449.03 383.615C449.202 383.344 449.442 383.121 449.726 382.97C450.01 382.818 450.328 382.742 450.649 382.749C451.025 382.739 451.394 382.645 451.729 382.473C452.064 382.301 452.356 382.057 452.583 381.757L452.194 380.74ZM341.989 394.778C341.967 395.132 341.864 395.476 341.688 395.783C341.526 396.057 341.297 396.286 341.023 396.446C340.748 396.607 340.436 396.694 340.118 396.7C339.63 396.7 339.153 396.843 338.745 397.111C338.337 397.378 338.016 397.759 337.82 398.206C337.65 398.633 337.607 399.099 337.695 399.55C337.783 399.952 337.82 400.354 337.933 400.806C338.046 400.404 338.097 400.002 338.184 399.55C338.216 399.199 338.328 398.859 338.511 398.558C338.686 398.289 338.927 398.068 339.21 397.917C339.493 397.766 339.81 397.688 340.131 397.691C340.621 397.677 341.096 397.52 341.497 397.239C341.899 396.957 342.21 396.565 342.391 396.109C342.537 395.681 342.567 395.222 342.479 394.778C342.391 394.377 342.341 393.975 342.228 393.523C342.115 393.975 342.077 394.377 341.989 394.778ZM344.638 331.505L343.998 333.602C344.237 333.365 344.422 333.077 344.538 332.761C344.677 332.357 344.712 331.925 344.638 331.505ZM367.239 290.231C367.213 290.589 367.106 290.937 366.925 291.248C366.764 291.522 366.535 291.751 366.26 291.911C365.986 292.072 365.674 292.159 365.356 292.165C364.87 292.168 364.396 292.312 363.99 292.579C363.584 292.847 363.265 293.226 363.071 293.672C362.896 294.097 362.848 294.563 362.933 295.015C363.02 295.417 363.071 295.819 363.184 296.271C363.297 295.869 363.347 295.467 363.422 295.015C363.45 294.661 363.567 294.32 363.761 294.023C363.937 293.754 364.177 293.534 364.46 293.382C364.743 293.231 365.06 293.153 365.381 293.157C365.869 293.14 366.341 292.981 366.74 292.7C367.14 292.419 367.448 292.028 367.629 291.575C367.78 291.143 367.81 290.678 367.716 290.231C367.641 289.842 367.591 289.44 367.478 289.038C367.377 289.44 367.327 289.842 367.252 290.231H367.239ZM361.024 353.906C361.006 354.264 360.902 354.613 360.723 354.923C360.561 355.198 360.332 355.426 360.058 355.587C359.783 355.747 359.471 355.834 359.153 355.84C358.669 355.842 358.195 355.984 357.79 356.249C357.384 356.514 357.064 356.891 356.868 357.334C356.688 357.758 356.64 358.226 356.73 358.678C356.818 359.08 356.868 359.481 356.981 359.933C357.094 359.532 357.144 359.13 357.22 358.678C357.252 358.325 357.368 357.985 357.559 357.686C357.733 357.417 357.973 357.197 358.257 357.047C358.54 356.898 358.858 356.823 359.178 356.832C359.666 356.815 360.139 356.657 360.538 356.376C360.937 356.095 361.245 355.703 361.426 355.25C361.577 354.818 361.607 354.354 361.514 353.906C361.438 353.504 361.388 353.103 361.275 352.651C361.175 353.103 361.124 353.504 361.037 353.906H361.024ZM416.735 362.47C416.713 362.823 416.61 363.167 416.434 363.474C416.273 363.749 416.044 363.977 415.769 364.138C415.494 364.298 415.183 364.385 414.865 364.391C414.377 364.392 413.899 364.535 413.491 364.802C413.083 365.07 412.762 365.451 412.567 365.898C412.396 366.324 412.353 366.791 412.441 367.241C412.529 367.643 412.567 368.045 412.68 368.497C412.793 368.095 412.843 367.693 412.931 367.241C412.965 366.891 413.076 366.552 413.257 366.249C413.433 365.98 413.673 365.76 413.956 365.609C414.239 365.457 414.556 365.38 414.877 365.383C415.367 365.369 415.842 365.211 416.244 364.93C416.645 364.649 416.956 364.256 417.137 363.801C417.283 363.373 417.313 362.914 417.225 362.47C417.137 362.068 417.087 361.666 416.974 361.214C416.823 361.666 416.823 362.068 416.748 362.47H416.735ZM365.255 433.968C365.229 434.322 365.122 434.666 364.942 434.972C364.782 435.248 364.554 435.478 364.278 435.639C364.003 435.8 363.691 435.886 363.372 435.889C362.886 435.892 362.412 436.036 362.006 436.304C361.6 436.571 361.281 436.951 361.087 437.396C360.911 437.821 360.867 438.289 360.961 438.739C361.037 439.141 361.087 439.543 361.2 439.995C361.313 439.593 361.363 439.191 361.438 438.739C361.471 438.386 361.587 438.046 361.777 437.747C361.953 437.478 362.193 437.258 362.476 437.107C362.759 436.955 363.076 436.878 363.397 436.881C363.755 436.88 364.108 436.799 364.431 436.643C364.754 436.488 365.037 436.262 365.261 435.983C365.485 435.704 365.644 435.378 365.725 435.029C365.807 434.68 365.809 434.318 365.733 433.968C365.657 433.566 365.607 433.164 365.494 432.712C365.343 433.127 365.343 433.566 365.268 433.968H365.255ZM408.461 340.37C408.728 340.134 409.046 339.962 409.39 339.868C409.698 339.791 410.021 339.793 410.329 339.874C410.636 339.955 410.918 340.113 411.148 340.332C411.492 340.675 411.927 340.91 412.402 341.011C412.876 341.111 413.37 341.072 413.822 340.897C414.246 340.715 414.608 340.414 414.865 340.031C415.091 339.692 415.342 339.378 415.543 339.014C415.178 339.215 414.865 339.466 414.526 339.692C414.252 339.918 413.93 340.077 413.584 340.157C413.271 340.223 412.946 340.209 412.641 340.114C412.335 340.02 412.059 339.848 411.839 339.617C411.582 339.358 411.27 339.161 410.927 339.04C410.583 338.919 410.217 338.877 409.855 338.917C409.493 338.956 409.145 339.077 408.836 339.27C408.528 339.463 408.266 339.723 408.072 340.031C407.846 340.37 407.595 340.684 407.394 341.048C407.808 340.847 408.122 340.596 408.473 340.37H408.461ZM375.953 369.803C376.224 369.568 376.547 369.4 376.895 369.313C377.202 369.231 377.525 369.229 377.833 369.308C378.141 369.387 378.424 369.545 378.653 369.765C378.996 370.108 379.432 370.343 379.906 370.444C380.381 370.544 380.874 370.505 381.327 370.33C381.751 370.148 382.113 369.847 382.369 369.464C382.595 369.125 382.847 368.811 383.047 368.447C382.683 368.648 382.369 368.899 382.03 369.125C381.757 369.351 381.435 369.51 381.089 369.59C380.774 369.655 380.448 369.64 380.14 369.545C379.833 369.451 379.555 369.28 379.331 369.05C379.075 368.789 378.764 368.59 378.42 368.468C378.076 368.345 377.709 368.302 377.347 368.342C376.984 368.382 376.635 368.504 376.326 368.698C376.018 368.892 375.757 369.154 375.564 369.464C375.338 369.803 375.087 370.129 374.886 370.494C375.313 370.343 375.627 370.029 375.966 369.803H375.953ZM353.942 413.174C354.213 412.943 354.53 412.771 354.872 412.672C355.18 412.594 355.503 412.597 355.81 412.678C356.118 412.759 356.399 412.917 356.629 413.136C356.975 413.479 357.414 413.714 357.891 413.812C358.368 413.91 358.863 413.867 359.316 413.689C359.739 413.511 360.101 413.215 360.359 412.835C360.585 412.496 360.836 412.169 361.037 411.805C360.672 412.019 360.359 412.257 360.007 412.483C359.744 412.718 359.424 412.879 359.078 412.948C358.764 413.02 358.437 413.009 358.129 412.916C357.821 412.824 357.542 412.653 357.32 412.421C356.964 412.085 356.517 411.862 356.035 411.777C355.553 411.692 355.057 411.75 354.608 411.943C354.195 412.139 353.847 412.449 353.603 412.835C353.377 413.174 353.126 413.488 352.925 413.852C353.302 413.651 353.616 413.4 353.955 413.174H353.942ZM363.472 458.24C363.74 458.008 364.058 457.84 364.402 457.75C364.709 457.668 365.032 457.666 365.34 457.745C365.648 457.825 365.93 457.982 366.159 458.202C366.504 458.547 366.942 458.784 367.419 458.885C367.896 458.985 368.392 458.944 368.846 458.767C369.27 458.585 369.632 458.285 369.889 457.901C370.115 457.562 370.366 457.248 370.567 456.884C370.203 457.085 369.889 457.336 369.537 457.562C369.268 457.788 368.95 457.947 368.608 458.027C368.293 458.094 367.966 458.08 367.659 457.986C367.351 457.891 367.072 457.719 366.85 457.487C366.594 457.226 366.283 457.027 365.939 456.905C365.596 456.782 365.229 456.739 364.866 456.779C364.503 456.819 364.154 456.941 363.846 457.135C363.537 457.329 363.276 457.591 363.083 457.901C362.857 458.24 362.606 458.567 362.405 458.918C362.832 458.705 363.133 458.454 363.472 458.24ZM406.075 408.729C406.343 408.493 406.66 408.321 407.004 408.227C407.313 408.149 407.636 408.151 407.943 408.233C408.25 408.314 408.532 408.472 408.762 408.691C409.108 409.034 409.547 409.269 410.024 409.367C410.501 409.465 410.996 409.422 411.449 409.244C411.869 409.066 412.227 408.769 412.479 408.39C412.705 408.051 412.956 407.724 413.169 407.36C412.805 407.574 412.479 407.812 412.14 408.038C411.873 408.274 411.548 408.434 411.198 408.503C410.886 408.575 410.561 408.564 410.255 408.472C409.949 408.379 409.672 408.208 409.453 407.975C409.096 407.64 408.65 407.417 408.168 407.332C407.686 407.247 407.19 407.305 406.741 407.498C406.322 407.691 405.969 408 405.724 408.39C405.498 408.729 405.259 409.043 405.046 409.407C405.41 409.193 405.736 408.942 406.075 408.716V408.729ZM435.394 426.672C435.664 426.441 435.981 426.27 436.323 426.17C436.631 426.093 436.954 426.095 437.262 426.176C437.569 426.258 437.851 426.415 438.081 426.635C438.427 426.978 438.865 427.212 439.342 427.31C439.819 427.408 440.315 427.366 440.768 427.187C441.191 427.01 441.553 426.713 441.81 426.333C442.036 425.994 442.287 425.68 442.488 425.316C442.124 425.517 441.81 425.768 441.458 425.994C441.189 426.22 440.871 426.379 440.529 426.459C440.214 426.527 439.888 426.513 439.58 426.418C439.272 426.324 438.994 426.152 438.771 425.919C438.516 425.659 438.204 425.46 437.861 425.337C437.517 425.215 437.15 425.172 436.787 425.211C436.425 425.251 436.076 425.373 435.767 425.567C435.458 425.762 435.197 426.024 435.005 426.333C434.778 426.672 434.527 426.986 434.326 427.35C434.728 427.137 435.055 426.848 435.394 426.66V426.672ZM386.073 440.284C386.342 440.05 386.66 439.879 387.003 439.782C387.311 439.704 387.634 439.707 387.941 439.788C388.249 439.869 388.53 440.027 388.76 440.246C389.106 440.589 389.545 440.824 390.022 440.922C390.499 441.02 390.994 440.977 391.447 440.799C391.87 440.621 392.233 440.325 392.49 439.945C392.716 439.606 392.954 439.279 393.168 438.915C392.803 439.129 392.477 439.38 392.138 439.606C391.866 439.834 391.543 439.994 391.196 440.07C390.883 440.137 390.559 440.123 390.253 440.028C389.948 439.934 389.672 439.762 389.451 439.531C389.095 439.195 388.648 438.972 388.166 438.887C387.684 438.802 387.188 438.86 386.739 439.053C386.329 439.254 385.982 439.562 385.734 439.945C385.508 440.284 385.257 440.598 385.044 440.962C385.433 440.761 385.734 440.51 386.073 440.284ZM449.683 458.24C449.951 458.008 450.269 457.84 450.612 457.75C450.919 457.668 451.242 457.666 451.55 457.745C451.858 457.825 452.14 457.982 452.37 458.202C452.714 458.547 453.152 458.784 453.629 458.885C454.106 458.985 454.602 458.944 455.057 458.767C455.48 458.585 455.842 458.285 456.099 457.901C456.325 457.562 456.576 457.248 456.777 456.884C456.413 457.085 456.099 457.336 455.747 457.562C455.478 457.788 455.16 457.947 454.818 458.027C454.503 458.093 454.177 458.078 453.869 457.984C453.562 457.89 453.283 457.718 453.06 457.487C452.805 457.226 452.493 457.027 452.149 456.905C451.806 456.782 451.439 456.739 451.076 456.779C450.713 456.819 450.365 456.941 450.056 457.135C449.747 457.329 449.486 457.591 449.293 457.901C449.067 458.24 448.816 458.567 448.615 458.918C449.03 458.705 449.344 458.454 449.683 458.24ZM460.983 409.47C460.683 409.381 460.411 409.217 460.192 408.993C459.936 408.732 459.625 408.533 459.281 408.411C458.938 408.288 458.571 408.245 458.208 408.285C457.845 408.325 457.496 408.447 457.188 408.641C456.879 408.835 456.618 409.097 456.425 409.407C456.199 409.746 455.948 410.06 455.747 410.424C456.111 410.223 456.425 409.972 456.764 409.746C457.035 409.515 457.352 409.343 457.693 409.244C458.002 409.166 458.325 409.169 458.632 409.25C458.939 409.331 459.221 409.489 459.451 409.708C459.914 410.174 460.54 410.44 461.196 410.449L460.983 409.47ZM340.633 446.5C340.904 446.268 341.22 446.097 341.562 445.997C341.87 445.92 342.193 445.922 342.501 446.003C342.808 446.085 343.09 446.242 343.32 446.462C343.665 446.807 344.102 447.044 344.579 447.144C345.057 447.245 345.553 447.204 346.007 447.027C346.431 446.845 346.793 446.544 347.049 446.16C347.275 445.821 347.526 445.508 347.727 445.143C347.363 445.344 347.049 445.595 346.698 445.821C346.429 446.047 346.11 446.206 345.768 446.286C345.454 446.353 345.127 446.338 344.82 446.243C344.512 446.149 344.234 445.978 344.011 445.746C343.755 445.486 343.444 445.287 343.1 445.164C342.756 445.042 342.389 444.999 342.027 445.039C341.664 445.078 341.315 445.2 341.006 445.394C340.697 445.589 340.437 445.851 340.244 446.16C340.018 446.5 339.767 446.826 339.566 447.178C340.03 446.939 340.344 446.713 340.683 446.487L340.633 446.5ZM337.004 370.845C337.268 370.605 337.587 370.432 337.933 370.343C338.241 370.26 338.566 370.259 338.874 370.34C339.183 370.422 339.465 370.583 339.691 370.808C340.037 371.15 340.476 371.385 340.953 371.483C341.43 371.581 341.925 371.538 342.378 371.36C342.798 371.183 343.156 370.886 343.408 370.506C343.634 370.155 343.885 369.841 344.098 369.477C343.734 369.677 343.408 369.929 343.069 370.155C342.803 370.392 342.477 370.553 342.127 370.619C341.815 370.689 341.491 370.677 341.185 370.584C340.88 370.492 340.603 370.322 340.382 370.092C340.025 369.757 339.579 369.533 339.097 369.448C338.615 369.364 338.119 369.421 337.67 369.615C337.255 369.806 336.903 370.111 336.653 370.494C336.427 370.845 336.188 371.159 335.975 371.523C336.389 371.31 336.715 371.059 337.054 370.833L337.004 370.845Z" fill="white"/>
<path d="M345.002 328.994C343.621 334.016 342.282 339.039 340.985 344.062C341.148 341.864 341.386 339.679 341.675 337.494C341.675 337.369 341.499 337.306 341.462 337.494C340.927 340.205 340.628 342.957 340.57 345.719C339.013 351.788 337.557 357.878 336.201 363.989C333.627 375.705 331.329 387.52 329.42 399.361C328.353 406.054 327.524 412.772 326.382 419.452C326.382 419.578 326.558 419.628 326.583 419.452C327.625 413.538 329.019 407.661 330.35 401.785C331.681 395.908 332.861 390.107 334.116 384.268C336.552 372.503 339.139 360.775 341.55 349.021C342.918 342.392 344.186 335.749 345.555 329.132C345.564 329.095 345.566 329.058 345.56 329.021C345.555 328.984 345.542 328.948 345.523 328.916C345.484 328.851 345.421 328.805 345.348 328.786C345.275 328.768 345.197 328.78 345.132 328.818C345.067 328.857 345.021 328.92 345.002 328.994Z" fill="#263238"/>
<path d="M339.114 250.778C340.784 259.919 335.636 268.521 327.612 269.99C319.589 271.459 311.741 265.231 310.034 256.089C308.326 246.948 313.499 238.334 321.523 236.878C329.546 235.421 337.444 241.637 339.114 250.778Z" fill="#455A64"/>
<path d="M343.923 250.489C345.781 260.66 340.055 270.228 331.141 271.835C322.226 273.443 313.474 266.549 311.616 256.378C309.758 246.207 315.483 236.639 324.398 235.032C333.313 233.424 342.064 240.318 343.923 250.489Z" fill="#C7C7C7"/>
<path d="M369.374 322.263C378.465 322.263 390.029 305.488 393.23 293.383C393.444 292.554 383.336 264.088 381.93 258.224C381.641 256.968 347.413 276.029 347.413 276.029C347.413 276.029 353.993 287.418 356.403 297.627C356.63 298.544 360.585 322.301 369.374 322.263Z" fill="#F8D197"/>
<path d="M360.635 299.849C359.447 300.179 358.233 300.402 357.006 300.515C356.855 299.799 356.73 299.196 356.642 298.732C356.647 298.711 356.647 298.69 356.642 298.669C356.648 298.615 356.648 298.56 356.642 298.506C356.642 298.33 356.579 298.142 356.529 297.953C356.535 297.916 356.535 297.878 356.529 297.84V297.689C355.973 295.408 355.285 293.161 354.47 290.959C352.871 286.696 351 282.539 348.87 278.515C348.694 278.18 348.531 277.879 348.38 277.611L347.576 276.13L348.48 275.615L349.736 274.949L350.54 274.51L351.532 273.957L352.448 273.455L352.624 273.355L353.88 272.702L354.156 272.551L355.349 271.898L355.976 271.559L357.91 270.504L359.392 269.701L360.647 269.022L364.941 266.712L366.323 265.959L371.282 263.347L372.35 262.794L372.877 262.355L373.718 261.915L375.526 260.999L376.631 260.446C377.171 260.17 377.673 259.931 378.15 259.705C378.389 259.58 378.628 259.479 378.841 259.379C379.494 259.065 380.097 258.814 380.524 258.625L380.825 258.5C381.252 268.445 380.411 294.55 360.635 299.849Z" fill="#263238"/>
<path d="M371.697 214.225C379.795 225.639 385.32 264.54 379.017 275.753C369.876 291.976 348.82 300.251 333.501 287.87C318.66 275.879 312.369 225.087 319.978 214.237C331.178 198.316 359.718 197.386 371.697 214.225Z" fill="#F8D197"/>
<path d="M342.742 248.543C342.742 248.43 342.956 248.63 342.968 248.743C343.27 251.368 344.061 254.331 346.559 254.858C346.635 254.858 346.647 255.009 346.559 255.009C343.546 255.059 342.542 251.117 342.742 248.543Z" fill="#263238"/>
<path d="M344.613 245.491C348.782 244.562 350.351 253.025 346.484 253.828C342.617 254.632 341.123 246.282 344.613 245.491Z" fill="#263238"/>
<path d="M328.378 251.657C328.378 251.556 328.202 251.807 328.215 251.92C328.793 254.507 329.006 257.558 326.809 258.864C326.746 258.864 326.809 259.04 326.809 259.015C329.659 258.073 329.332 254.017 328.378 251.657Z" fill="#263238"/>
<path d="M325.553 249.371C321.309 249.836 322.54 258.286 326.482 257.859C330.425 257.432 329.106 248.982 325.553 249.371Z" fill="#263238"/>
<path d="M347.212 241.009C346.048 240.893 344.891 240.713 343.747 240.469C342.492 240.446 341.281 240.004 340.307 239.213C340.05 238.908 339.9 238.526 339.879 238.127C339.859 237.728 339.969 237.334 340.194 237.003C340.744 236.428 341.437 236.009 342.203 235.788C342.968 235.567 343.778 235.554 344.551 235.748C346.177 235.902 347.69 236.653 348.795 237.857C349.035 238.145 349.187 238.496 349.23 238.869C349.273 239.241 349.207 239.618 349.039 239.953C348.871 240.288 348.608 240.566 348.284 240.754C347.959 240.942 347.587 241.03 347.212 241.009Z" fill="#263238"/>
<path d="M321.51 245.742C322.594 245.304 323.655 244.81 324.687 244.26C325.878 243.885 326.914 243.131 327.638 242.113C327.801 241.749 327.839 241.34 327.746 240.952C327.653 240.563 327.434 240.217 327.123 239.966C326.436 239.562 325.653 239.349 324.856 239.349C324.059 239.349 323.277 239.562 322.59 239.966C321.062 240.558 319.815 241.706 319.099 243.18C318.954 243.524 318.911 243.902 318.976 244.269C319.042 244.636 319.213 244.976 319.469 245.248C319.724 245.52 320.053 245.711 320.416 245.799C320.778 245.886 321.159 245.867 321.51 245.742Z" fill="#263238"/>
<path d="M350.276 272.112C349.774 272.84 349.309 273.794 348.38 274.045C347.407 274.211 346.41 274.168 345.455 273.92C345.435 273.911 345.413 273.91 345.393 273.917C345.372 273.924 345.355 273.938 345.344 273.956C345.333 273.975 345.33 273.997 345.334 274.018C345.338 274.039 345.35 274.057 345.367 274.07C345.834 274.513 346.412 274.82 347.04 274.959C347.668 275.099 348.322 275.065 348.933 274.861C349.437 274.626 349.86 274.246 350.149 273.77C350.437 273.294 350.577 272.743 350.552 272.187C350.565 272.024 350.352 272.011 350.276 272.112Z" fill="#263238"/>
<path d="M346.095 264.866C345.623 266.016 344.919 267.055 344.027 267.919C343.134 268.784 342.073 269.454 340.909 269.889C339.9 270.287 338.839 270.537 337.758 270.63C337.549 270.648 337.339 270.648 337.13 270.63C336.938 270.643 336.745 270.643 336.552 270.63C336.408 270.63 336.268 270.584 336.153 270.498C336.037 270.412 335.953 270.291 335.912 270.153C335.905 270.065 335.905 269.977 335.912 269.889V269.663C335.485 267.667 335.108 264.64 335.108 264.64C334.443 265.143 331.028 267.516 330.89 266.461C329.785 257.671 328.554 247.952 329.307 239C329.32 238.944 329.351 238.895 329.396 238.859C329.44 238.824 329.495 238.804 329.552 238.804C329.609 238.804 329.664 238.824 329.709 238.859C329.753 238.895 329.785 238.944 329.797 239C331.191 247.387 331.053 255.951 332.371 264.389C333.581 263.522 334.909 262.833 336.314 262.343C336.615 262.343 336.929 268.307 337.193 269.186V269.286C340.633 269.085 342.981 267.591 345.831 264.716C345.969 264.465 346.208 264.603 346.095 264.866Z" fill="#263238"/>
<path d="M338.75 269.387C340.111 270.622 341.767 271.486 343.558 271.898C344.544 272.082 345.562 271.955 346.471 271.534C348.443 270.605 348.141 268.684 347.451 267.127C347.081 266.299 346.613 265.519 346.057 264.804C344.173 267.072 341.612 268.678 338.75 269.387Z" fill="#263238"/>
<path d="M343.559 271.86C344.544 272.044 345.562 271.917 346.472 271.496C348.443 270.567 348.142 268.646 347.451 267.089C345.254 267.742 343.345 269.663 343.559 271.86Z" fill="#FF99BA"/>
<path opacity="0.2" d="M370.24 230.561C372.827 233.839 378.477 241.699 380.398 241.799C378.414 229.13 375.187 218.067 370.14 212.178C368.052 209.746 365.537 207.716 362.719 206.189C363.447 209.529 367.491 227.196 370.24 230.561Z" fill="#263238"/>
<path d="M332.497 222.864C334.063 224.332 335.98 225.375 338.063 225.891C340.147 226.408 342.329 226.381 344.4 225.815C346.521 225.238 348.459 224.127 350.028 222.589C351.598 221.05 352.746 219.135 353.365 217.025C353.365 216.999 353.375 216.973 353.394 216.954C353.413 216.935 353.439 216.925 353.465 216.925C353.492 216.925 353.517 216.935 353.536 216.954C353.555 216.973 353.566 216.999 353.566 217.025C353.101 219.289 352.03 221.383 350.466 223.084C348.902 224.785 346.905 226.029 344.689 226.681C342.472 227.197 340.159 227.12 337.981 226.459C335.804 225.798 333.839 224.575 332.283 222.914C332.293 222.896 332.307 222.881 332.324 222.869C332.34 222.856 332.359 222.848 332.379 222.843C332.399 222.838 332.42 222.838 332.44 222.841C332.46 222.845 332.48 222.853 332.497 222.864Z" fill="#263238"/>
<path d="M341.964 190.505C349.234 189.852 356.341 193.117 359.542 197.763C361.331 200.404 362.172 203.573 361.928 206.753C361.928 206.879 361.664 206.879 361.664 206.753C361.507 203.981 360.608 201.303 359.062 198.997C357.516 196.691 355.379 194.843 352.875 193.644C350.12 192.246 347.077 191.507 343.988 191.485C340.898 191.464 337.845 192.16 335.071 193.519C332.352 194.779 330.175 196.971 328.931 199.696C328.818 199.973 328.253 199.86 328.341 199.583C329.759 194.825 335.385 191.108 341.964 190.505Z" fill="#263238"/>
<path d="M301.621 210.973C302.404 207.258 304.477 203.939 307.473 201.606C311.603 198.354 316.689 198.19 321.724 198.14C321.862 198.14 321.874 198.354 321.724 198.354C317.43 198.417 313.073 198.73 309.394 201.166C306.34 203.16 304.073 206.151 302.977 209.63C301.956 213.194 302.251 217.007 303.81 220.371C305.368 223.735 308.086 226.425 311.465 227.95C313.435 228.776 315.553 229.19 317.689 229.166C319.824 229.142 321.933 228.681 323.883 227.812C324.034 227.749 324.185 227.963 324.021 228.038C321.396 229.327 318.464 229.86 315.553 229.577C312.642 229.294 309.868 228.205 307.541 226.433C305.214 224.662 303.426 222.277 302.379 219.546C301.331 216.815 301.064 213.847 301.609 210.973H301.621Z" fill="#263238"/>
<path d="M375.753 222.537C375.753 222.537 381.114 208.725 374.497 201.944C370.73 198.077 359.995 199.898 359.995 199.898C358.307 197.929 356.247 196.314 353.933 195.146C351.618 193.978 349.095 193.28 346.509 193.092C337.218 192.075 327.073 198.629 327.073 198.629C327.073 198.629 317.894 194.712 310.373 200.262C299.901 207.997 303.317 224.936 315.257 229.142C323.657 232.068 333.602 223.781 333.602 223.781C334.657 223.781 346.02 228.941 352.938 218.532C352.938 218.532 360.133 223.555 365.494 218.821C366.617 220.417 368.203 221.63 370.038 222.295C371.873 222.96 373.868 223.045 375.753 222.537Z" fill="#806A49"/>
<path d="M348.192 259.982C346.706 260.077 345.216 259.878 343.808 259.395C342.4 258.913 341.1 258.157 339.985 257.171C338.87 256.185 337.96 254.989 337.308 253.65C336.657 252.312 336.276 250.858 336.188 249.371C336.057 247.262 336.521 245.158 337.525 243.298C338.53 241.439 340.036 239.899 341.873 238.852C343.709 237.806 345.802 237.296 347.914 237.379C350.025 237.463 352.071 238.137 353.819 239.325C355.567 240.513 356.947 242.167 357.802 244.1C358.657 246.033 358.952 248.167 358.655 250.26C358.358 252.353 357.48 254.32 356.121 255.939C354.762 257.557 352.976 258.762 350.967 259.417C350.069 259.722 349.137 259.912 348.192 259.982ZM337.72 249.271C337.84 251.206 338.532 253.063 339.707 254.605C340.882 256.148 342.487 257.307 344.321 257.937C346.155 258.567 348.134 258.64 350.009 258.145C351.884 257.65 353.57 256.611 354.854 255.158C356.139 253.705 356.963 251.904 357.224 249.983C357.486 248.061 357.171 246.106 356.321 244.363C355.471 242.62 354.123 241.169 352.448 240.192C350.773 239.215 348.847 238.756 346.911 238.874C346.096 238.927 345.291 239.079 344.513 239.326C342.44 239.998 340.648 241.339 339.418 243.138C338.189 244.938 337.592 247.095 337.72 249.271Z" fill="#FF25C2"/>
<path d="M324.699 264.515C320.142 265.406 315.446 261.149 314.253 255.022C313.657 252.258 313.943 249.377 315.069 246.784C315.487 245.643 316.193 244.629 317.118 243.841C318.042 243.052 319.155 242.515 320.347 242.281C321.54 242.048 322.773 242.126 323.927 242.508C325.081 242.89 326.116 243.562 326.934 244.461C328.954 246.435 330.306 248.99 330.802 251.77C331.932 257.571 329.546 263.071 325.415 264.326C325.181 264.404 324.942 264.467 324.699 264.515ZM316.45 247.425C315.451 249.725 315.2 252.282 315.734 254.733C316.777 260.032 320.669 263.761 324.411 263.033C328.152 262.305 330.35 257.382 329.32 252.071C328.882 249.602 327.689 247.329 325.905 245.566C325.234 244.867 324.405 244.338 323.487 244.026C322.569 243.713 321.59 243.626 320.631 243.771C320.443 243.799 320.258 243.845 320.079 243.909C319.263 244.212 318.52 244.681 317.895 245.286C317.27 245.891 316.778 246.619 316.45 247.425Z" fill="#FF25C2"/>
<path d="M336.816 250.577L337.557 249.258C335.585 248.166 331.279 247.023 329.169 250.514L330.425 251.318C332.371 248.191 336.64 250.489 336.816 250.577Z" fill="#FF25C2"/>
<path d="M386.915 243.733L388.108 242.791C387.668 242.239 383.713 237.392 380.285 237.505C377.096 237.618 357.534 243.382 356.705 243.633L357.132 245.089C362.744 243.419 377.862 239.1 380.335 239.012C382.595 238.949 385.848 242.402 386.915 243.733Z" fill="#FF25C2"/>
<path d="M373.819 246.734C373.819 246.734 378.452 232.219 384.793 233.474C391.134 234.73 390.242 254.03 384.617 258.374C383.935 258.981 383.137 259.444 382.271 259.735C381.405 260.025 380.49 260.138 379.579 260.065C378.669 259.992 377.783 259.736 376.974 259.311C376.165 258.887 375.451 258.304 374.874 257.596L373.819 246.734Z" fill="#F8D197"/>
<path d="M384.404 238.999C384.504 238.999 384.567 239.1 384.492 239.163C380.587 242.352 379.532 247.224 379.218 252.02C380.034 249.961 381.553 248.492 384.24 249.383C384.391 249.383 384.328 249.647 384.24 249.66C383.378 249.654 382.535 249.915 381.827 250.408C381.119 250.9 380.58 251.599 380.285 252.409C379.803 253.767 379.47 255.173 379.293 256.603C379.205 257.068 378.427 257.08 378.439 256.603V256.49C376.531 250.802 378.477 241.473 384.404 238.999Z" fill="#263238"/>
<path d="M380.825 235.734C380.825 235.734 379.921 215.405 372.777 204.945C364.816 193.293 342.843 185.495 327.123 198.667C327.123 198.667 349.95 192.728 364.904 206.766C371.772 213.22 374.158 237.053 374.158 237.053L380.825 235.734Z" fill="#C7C7C7"/>
<path d="M381.294 265.011C390.318 264.096 396.788 255.015 395.745 244.728C394.702 234.441 386.541 226.843 377.517 227.758C368.493 228.673 362.023 237.755 363.066 248.042C364.109 258.329 372.27 265.926 381.294 265.011Z" fill="#C7C7C7"/>
<path d="M367.779 246.961C368.721 256.215 376.054 263.046 384.165 262.217C392.276 261.388 398.09 253.226 397.16 243.985C396.231 234.743 388.886 227.912 380.762 228.728C372.638 229.544 366.837 237.719 367.779 246.961Z" fill="#455A64"/>
<path d="M417.188 301.833C441.521 327.901 499.417 425.718 480.646 443.725C461.875 461.731 357.722 437.446 328.466 423.546C319.752 419.402 352.825 365.132 363.058 363.864C371.571 362.809 415.116 382.699 416.371 380.188C417.803 377.362 407.909 359.193 397.437 321.359C385.358 277.8 406.44 290.319 417.188 301.833Z" fill="#F8D197"/>
<path d="M319.815 346.372C298.67 343.434 292.782 345.92 276.258 333.953C265.409 326.105 255.741 329.659 261.919 342.14C272.052 362.545 298.545 372.076 308.678 372.741L319.815 346.372Z" fill="#F8D197"/>
<path d="M376.003 366.739C376.003 366.739 352.235 353.542 330.011 348.167C314.629 344.463 280.288 340.106 247.429 373.997C239.632 382.046 234.22 399.022 251.723 390.521C264.154 384.469 270.206 376.885 278.091 374.687C278.091 374.687 273.784 397.114 282.134 404.597C289.444 411.151 297.211 417.177 305.376 422.629C306.713 421.36 307.971 420.01 309.142 418.586C309.142 418.586 317.618 424.864 333.551 423.332L376.003 366.739Z" fill="#F8D197"/>
<path d="M314.768 346.975C307.422 350.805 291.978 359.193 281.733 370.443C270.357 382.937 251.799 410.085 261.103 418.398C267.933 424.488 275.932 414.744 275.932 414.744C275.932 414.744 270.633 427.577 278.003 431.733C284.721 435.5 290.446 427.614 290.446 427.614C290.446 427.614 288.576 435.952 295.745 438.35C304.371 441.238 306.895 423.282 318.158 418.649C320.682 417.619 314.768 346.975 314.768 346.975Z" fill="#F8D197"/>
<path d="M296.938 380.263C290.66 385.009 279.02 399.45 275.819 414.405C275.743 414.744 275.957 414.982 276.095 414.694C281.664 402.449 288.706 390.929 297.064 380.389C297.114 380.301 297.013 380.213 296.938 380.263Z" fill="#263238"/>
<path d="M309.23 392.116C304.208 396.775 292.907 412.207 290.17 427.464C290.107 427.803 290.346 428.029 290.472 427.727C295.392 415.219 301.71 403.306 309.306 392.217C309.406 392.141 309.293 392.066 309.23 392.116Z" fill="#263238"/>
<path d="M278.079 374.549C271.185 376.583 266.703 379.961 260.877 384.004C258.024 386.042 255.061 387.92 252 389.629C249.187 391.148 245.056 393.396 242.055 391.06C240.398 389.742 240.423 387.293 240.8 385.435C241.199 383.29 242.055 381.256 243.311 379.471C243.374 379.383 243.223 379.27 243.16 379.358C241.972 380.913 241.012 382.629 240.31 384.456C239.561 386.146 239.342 388.025 239.682 389.842C240.699 393.609 245.182 394.136 248.346 393.094C250.241 392.404 252.063 391.525 253.783 390.47C255.453 389.503 257.072 388.474 258.667 387.394C261.944 385.171 265.096 382.773 268.348 380.526C271.505 378.401 274.798 376.484 278.204 374.788C278.236 374.771 278.26 374.742 278.27 374.708C278.281 374.674 278.277 374.637 278.261 374.605C278.244 374.574 278.215 374.55 278.181 374.54C278.147 374.529 278.11 374.532 278.079 374.549Z" fill="#263238"/>
<path d="M263.639 398.809C265.422 394.879 275.078 378.505 278.217 374.713C278.228 374.693 278.233 374.671 278.231 374.648C278.228 374.626 278.218 374.605 278.202 374.589C278.186 374.573 278.165 374.563 278.143 374.561C278.12 374.558 278.098 374.563 278.079 374.575C272.705 379.673 264.066 393.196 262.057 397.541C260.048 401.885 257.775 407.297 257.775 412.069C257.775 419.277 262.547 420.633 264.317 420.984C266.413 421.366 268.576 421.016 270.444 419.992C272.633 418.645 274.525 416.868 276.007 414.769C276.082 414.668 275.944 414.53 275.856 414.631C273.345 417.468 269.214 420.269 265.309 419.754C264.444 419.671 263.604 419.416 262.838 419.004C262.073 418.592 261.398 418.032 260.852 417.355C259.785 415.622 259.375 413.564 259.696 411.554C260.274 407.112 261.608 402.802 263.639 398.809Z" fill="#263238"/>
<path d="M290.17 427.463C289.166 428.317 287.106 431.305 283.829 431.945C282.666 432.262 281.442 432.29 280.265 432.028C279.088 431.765 277.993 431.22 277.074 430.439C275.386 428.677 274.453 426.325 274.475 423.885C274.747 420.829 275.251 417.798 275.982 414.819C275.982 414.681 275.844 414.618 275.806 414.756C274.602 417.878 273.87 421.162 273.634 424.5C273.588 425.821 273.809 427.138 274.284 428.372C274.759 429.606 275.477 430.732 276.396 431.682C277.385 432.612 278.612 433.251 279.942 433.528C281.271 433.805 282.651 433.709 283.93 433.251C285.185 432.774 289.266 430.175 290.434 427.614C290.471 427.551 290.22 427.425 290.17 427.463Z" fill="#263238"/>
<path d="M317.48 417.355C316.371 418.098 315.348 418.962 314.429 419.929C313.411 420.909 312.432 421.926 311.49 422.956C309.584 425.048 307.901 427.333 306.468 429.774C305.011 432.223 303.668 434.947 301.295 436.642C300.169 437.501 298.8 437.983 297.385 438.019C295.969 438.055 294.578 437.644 293.41 436.843C292.179 435.949 291.292 434.659 290.898 433.189C290.429 431.594 290.276 429.922 290.446 428.267C290.446 428.241 290.436 428.215 290.417 428.196C290.398 428.177 290.373 428.167 290.346 428.167C290.319 428.167 290.294 428.177 290.275 428.196C290.256 428.215 290.245 428.241 290.245 428.267C289.985 429.738 289.867 431.231 289.894 432.725C290.023 434.082 290.508 435.382 291.3 436.492C292.155 437.583 293.294 438.416 294.592 438.902C295.891 439.387 297.297 439.505 298.658 439.242C301.672 438.689 303.869 436.429 305.514 433.98C307.322 431.256 308.829 428.355 310.775 425.706C311.792 424.312 312.796 422.905 313.914 421.587C315.031 420.269 316.425 418.988 317.555 417.556C317.731 417.443 317.63 417.28 317.48 417.355Z" fill="#263238"/>
<path d="M325.905 423.508C321.97 423.075 318.085 422.268 314.303 421.097C314.177 421.097 314.014 421.399 314.127 421.462C315.956 422.3 317.872 422.931 319.84 423.345C321.823 423.771 323.859 423.898 325.88 423.722C325.98 423.709 326.03 423.521 325.905 423.508Z" fill="#263238"/>
<path d="M467.048 363.311L407.971 361.352C407.971 361.352 396.972 332.196 392.791 306.254C388.61 280.311 409.855 288.235 432.029 316.01C454.203 343.786 467.048 363.311 467.048 363.311Z" fill="#FF25C2"/>
<path d="M252.942 465.347H261.957V459.459H252.942V465.347Z" fill="#455A64"/>
<path d="M241.252 464.958H250.267V459.069H241.252V464.958Z" fill="#455A64"/>
<path d="M229.55 464.569H238.565V458.68H229.55V464.569Z" fill="#455A64"/>
<path d="M217.86 464.18H226.875V458.291H217.86V464.18Z" fill="#455A64"/>
<path d="M206.158 463.79H215.173V457.901H206.158V463.79Z" fill="#455A64"/>
<path d="M194.468 463.401H203.483V457.512H194.468V463.401Z" fill="#455A64"/>
<path d="M182.766 463.012H191.781V457.123H182.766V463.012Z" fill="#455A64"/>
<path d="M171.076 462.623H180.091V456.734H171.076V462.623Z" fill="#455A64"/>
<path d="M159.374 462.233H168.389V456.344H159.374V462.233Z" fill="#455A64"/>
<path d="M157.164 468.737H264.167V461.581L157.164 458.592V468.737Z" fill="#37474F"/>
<path d="M52.735 440.485H229.374L201.286 308.966H24.6345L52.735 440.485Z" fill="#455A64"/>
<path d="M46.1932 440.485H222.845L194.744 308.966H18.1052L46.1932 440.485Z" fill="#37474F"/>
<path d="M105.207 367.103C105.746 370.098 107.297 372.818 109.601 374.806C111.905 376.795 114.822 377.932 117.863 378.028C119.237 378.071 120.602 377.803 121.857 377.243C123.111 376.683 124.223 375.845 125.107 374.794C125.992 373.743 126.627 372.504 126.964 371.172C127.301 369.84 127.332 368.449 127.054 367.103C126.509 364.111 124.955 361.396 122.653 359.408C120.351 357.421 117.437 356.281 114.398 356.179C113.024 356.135 111.659 356.404 110.404 356.964C109.15 357.524 108.038 358.361 107.154 359.412C106.269 360.464 105.634 361.702 105.297 363.034C104.96 364.366 104.929 365.758 105.207 367.103Z" fill="#263238"/>
<path d="M96.1538 474.827H183.029V468.085L96.1538 465.272V474.827Z" fill="#455A64"/>
<path d="M72.5359 474.815H119.182L147.27 401.132H100.624L72.5359 474.815Z" fill="#455A64"/>
<path d="M64.8516 474.815H111.497L139.598 401.132H92.9521L64.8516 474.815Z" fill="#263238"/>
<path d="M267.469 476.623H357.044C364.691 476.623 353.629 454.862 325.729 446.487C297.829 438.112 258.617 468.461 267.469 476.623Z" fill="#37474F"/>
<path d="M302.626 476.623C302.06 474.25 301.334 471.917 300.454 469.641C299.584 467.394 298.521 465.227 297.277 463.162C296.056 461.092 294.598 459.17 292.933 457.436L291.677 456.181L290.284 455.013C289.405 454.159 288.312 453.607 287.345 452.828C289.651 453.762 291.776 455.092 293.624 456.758C295.492 458.429 297.093 460.377 298.37 462.534C299.645 464.679 300.66 466.968 301.396 469.353C302.12 471.712 302.534 474.156 302.626 476.623Z" fill="#263238"/>
<path d="M292.004 455.917C290.748 456.57 289.555 457.173 288.35 457.889C287.145 458.605 285.927 459.232 284.746 459.936C282.386 461.355 280.038 462.786 277.815 464.393C275.558 465.941 273.456 467.703 271.537 469.655C270.586 470.627 269.744 471.701 269.026 472.857C268.275 474.009 267.732 475.284 267.419 476.624C267.499 475.214 267.862 473.834 268.486 472.568C269.124 471.302 269.899 470.111 270.797 469.014C272.635 466.866 274.745 464.966 277.075 463.364C281.663 460.178 286.687 457.67 291.991 455.917H292.004Z" fill="#263238"/>
<path d="M435.645 424.5L430.322 491.352H393.557L388.234 424.5H435.645Z" fill="#FF25C2"/>
<path opacity="0.1" d="M435.645 424.5L430.322 491.352H393.557L388.234 424.5H435.645Z" fill="black"/>
<path d="M438.809 418.472H384.755V428.216H438.809V418.472Z" fill="#455A64"/>
<path d="M435.105 418.472H388.459L391.184 407.523H432.381L435.105 418.472Z" fill="#37474F"/>
</svg>
