<svg width="28" height="38" viewBox="0 0 28 38" fill="none" xmlns="http://www.w3.org/2000/svg">
<g filter="url(#filter0_d_1708_2)">
<path d="M4.3931 30V0.395173H23.3097V5.61207H10.7552V12.3983H22.8855V17.6152H10.7552V24.7831H23.3097V30H4.3931Z" fill="#FF25C2"/>
<path d="M4.3931 30H3.3931V31H4.3931V30ZM4.3931 0.395173V-0.604827H3.3931V0.395173H4.3931ZM23.3097 0.395173H24.3097V-0.604827H23.3097V0.395173ZM23.3097 5.61207V6.61207H24.3097V5.61207H23.3097ZM10.7552 5.61207V4.61207H9.75517V5.61207H10.7552ZM10.7552 12.3983H9.75517V13.3983H10.7552V12.3983ZM22.8855 12.3983H23.8855V11.3983H22.8855V12.3983ZM22.8855 17.6152V18.6152H23.8855V17.6152H22.8855ZM10.7552 17.6152V16.6152H9.75517V17.6152H10.7552ZM10.7552 24.7831H9.75517V25.7831H10.7552V24.7831ZM23.3097 24.7831H24.3097V23.7831H23.3097V24.7831ZM23.3097 30V31H24.3097V30H23.3097ZM5.3931 30V0.395173H3.3931V30H5.3931ZM4.3931 1.39517H23.3097V-0.604827H4.3931V1.39517ZM22.3097 0.395173V5.61207H24.3097V0.395173H22.3097ZM23.3097 4.61207H10.7552V6.61207H23.3097V4.61207ZM9.75517 5.61207V12.3983H11.7552V5.61207H9.75517ZM10.7552 13.3983H22.8855V11.3983H10.7552V13.3983ZM21.8855 12.3983V17.6152H23.8855V12.3983H21.8855ZM22.8855 16.6152H10.7552V18.6152H22.8855V16.6152ZM9.75517 17.6152V24.7831H11.7552V17.6152H9.75517ZM10.7552 25.7831H23.3097V23.7831H10.7552V25.7831ZM22.3097 24.7831V30H24.3097V24.7831H22.3097ZM23.3097 29H4.3931V31H23.3097V29Z" fill="#FF25C2"/>
</g>
<defs>
<filter id="filter0_d_1708_2" x="0.393066" y="0.395264" width="26.9165" height="37.6047" filterUnits="userSpaceOnUse" color-interpolation-filters="sRGB">
<feFlood flood-opacity="0" result="BackgroundImageFix"/>
<feColorMatrix in="SourceAlpha" type="matrix" values="0 0 0 0 0 0 0 0 0 0 0 0 0 0 0 0 0 0 127 0" result="hardAlpha"/>
<feOffset dy="4"/>
<feGaussianBlur stdDeviation="2"/>
<feComposite in2="hardAlpha" operator="out"/>
<feColorMatrix type="matrix" values="0 0 0 0 0 0 0 0 0 0 0 0 0 0 0 0 0 0 0.25 0"/>
<feBlend mode="normal" in2="BackgroundImageFix" result="effect1_dropShadow_1708_2"/>
<feBlend mode="normal" in="SourceGraphic" in2="effect1_dropShadow_1708_2" result="shape"/>
</filter>
</defs>
</svg>
